<?xml version="1.0" standalone="no"?>
<!DOCTYPE svg PUBLIC "-//W3C//DTD SVG 1.1//EN" "http://www.w3.org/Graphics/SVG/1.1/DTD/svg11.dtd" >
<svg>
<metadata>
Created by FontForge 20110222 at Sat Jan 14 00:49:39 2012
 By www-data
Typeface (c) (your company). 2011. All Rights Reserved
</metadata>
<defs>
<font id="molesk" horiz-adv-x="2000" >
  <font-face 
    font-family="molesk"
    font-weight="400"
    font-stretch="normal"
    units-per-em="2048"
    panose-1="2 0 5 0 0 0 0 0 0 0"
    ascent="1638"
    descent="-410"
    x-height="1434"
    cap-height="1438"
    bbox="-31 -448 2305 1773"
    underline-thickness="150"
    underline-position="-142"
    unicode-range="U+0020-20AC"
  />
<missing-glyph horiz-adv-x="508" 
 />
    <glyph glyph-name=".notdef" unicode=" " horiz-adv-x="508" 
 />
    <glyph glyph-name=".notdef" unicode="&#xa0;" horiz-adv-x="508" 
 />
    <glyph glyph-name="exclam" unicode="!" horiz-adv-x="597" 
d="M152 273h209v1162h-209v-1162zM152 0h209v209h-209v-209zM388 274h38v1161h-38v-1161zM388 0h38v209h-38v-209z" />
    <glyph glyph-name="quotedbl" unicode="&#x22;" horiz-adv-x="672" 
d="M80 1202h155v274h-155v-274zM291 1202h-39v274h39v-274zM351 1202h155v274h-155v-274zM562 1202h-39v274h39v-274z" />
    <glyph glyph-name="numbersign" unicode="#" horiz-adv-x="1336" 
d="M961 936h28v264h-28v-264zM733 1200v-290h-190v290h-202v-290h-261v-202h261v-110h-256v-202h256v-316h202v316h190v-311h202v311h271v202h-271v110h269v202h-269v290h-202zM543 708h190v-110h-190v110zM570 936h28v264h-28v-264zM1229 709h27v201h-27v-201zM961 623h28
v58h-28v-58zM570 623h28v58h-28v-58zM1229 397h27v202h-27v-202zM961 86h28v286h-28v-286zM570 86h28v286h-28v-286z" />
    <glyph glyph-name="dollar" unicode="$" horiz-adv-x="1799" 
d="M1006 240h38v332h-38v-332zM427 1129q-46 -52 -46 -121q0 -68 44 -119q43 -50 108 -62q-127 54 -127 181q0 124 133 182q-67 -10 -112 -61zM982 211v389h231q81 0 138 -57t57 -137q0 -81 -57 -138t-138 -57h-231zM769 814h-21v-1h-199q-80 0 -137 57t-57 138t57 138
t137 57l6 -1h214v-388zM1009 -86h38v55h-38v-55zM1595 1164q-32 95 -90 149q-69 63 -137 73q141 -68 198 -226q14 1 29 4zM1694 933l-14 209l-38 -2l14 -209zM1502 694q-119 120 -288 120h-232v388h171l5 1q101 0 159 -83l-38 -2l13 -214l339 22l-14 213l-71 -4
q-41 123 -146 201q-107 79 -241 79l-5 1h-172v112h-213v-112h-216l-4 -1q-169 0 -289 -119q-119 -120 -119 -288q0 -169 119 -289q120 -119 289 -119h220v-389h-226q-97 0 -156 79l54 3l-13 213l-339 -21l14 -213l54 3q41 -122 146 -199q107 -78 240 -78h226v-88h213v88h232
q169 0 288 120q119 119 119 288t-119 288zM1425 780q188 -91 219 -315q32 -223 -123 -364q-63 -57 -122 -89q76 22 139 79q36 26 71 78q72 104 72 233q0 193 -114 299q-69 64 -142 79zM492 511l-38 -3l16 -212l38 4zM1047 1528h-38v-84h38v84zM1044 1175h-38v-332h38v332z
" />
    <glyph glyph-name="ampersand" unicode="&#x26;" horiz-adv-x="1640" 
d="M333 536q-46 -52 -46 -122q0 -68 44 -120q44 -51 110 -63q-129 55 -129 183q0 125 135 183q-68 -9 -114 -61zM358 1023q0 125 135 183q-68 -9 -113 -61q-46 -52 -46 -122q0 -68 44 -120q43 -51 109 -63q-129 55 -129 183zM894 219h-434l-6 -1q-81 0 -138 58
q-58 57 -58 139q0 78 54 135q54 56 131 61h142l440 -347q-55 -46 -126 -46zM512 1218h209q82 0 139 -57q58 -58 58 -139t-58 -139q-57 -57 -139 -57h-230q-80 0 -131 58q-50 56 -50 139q0 81 58 138q57 58 139 58zM1070 10q76 22 139 79l-15 12q0 -1 -1 -1q-64 -58 -123 -90
zM1448 526l32 -8l43 209l-33 8zM1325 322l34 -27h39l-42 32l39 182l-32 8l-41 -193l-1 -2h4zM1297 310q2 6 3 12l50 223l67 -15l46 211l-302 66l-45 -210l22 -5q-16 -62 -34 -133l-233 180q117 45 189 148q73 106 73 236q0 170 -120 290q-121 121 -291 121h-212l-4 -1
q-170 0 -291 -120q-120 -121 -120 -291q0 -161 109 -280q-162 -123 -162 -327q0 -170 121 -291q120 -120 291 -120l4 -1h438l4 1q174 0 295 125l161 -126h148v261h-148zM1530 0h41v262h-41v-262zM917 631l3 -2l173 -135l7 25l-152 117q46 21 100 69q36 27 72 79
q72 105 72 235q0 195 -116 302q-68 64 -143 80q93 -45 152 -133q56 -82 70 -185q15 -102 -16 -198q-32 -100 -108 -169q-55 -50 -114 -85z" />
    <glyph glyph-name="quotesingle" unicode="'" horiz-adv-x="346" 
d="M78 1186h158v314h-158v-314zM255 1186h45v314h-45v-314z" />
    <glyph glyph-name="parenleft" unicode="(" horiz-adv-x="758" 
d="M203 4q0 -180 123 -310q122 -131 300 -142v238q-79 11 -132 72q-54 61 -54 142l-3 1145q0 82 55 143q54 61 134 71v237q-179 -10 -302 -141q-124 -131 -124 -311zM512 1157q0 69 37 113q3 4 76 65q-58 0 -106 -50q-48 -53 -50 -124v7v-1169v0q2 -71 51 -125
q48 -52 106 -54v3q-67 55 -76 66q-38 46 -38 113v1155z" />
    <glyph glyph-name="parenright" unicode=")" horiz-adv-x="758" 
d="M501 1149q0 174 -116 303q-115 128 -285 148v-240q71 -18 117 -76q46 -59 46 -134l-3 -1147q0 -75 -45 -133q-45 -57 -115 -76v-242q169 21 283 149q115 128 115 301zM475 1375q54 -104 54 -201l3 -1207v0l-2 -21q-7 -97 -68 -197q-70 -113 -175 -165q120 27 201 129
q81 101 89 235v8v1215q0 132 -73 239q-74 107 -192 142q102 -59 163 -177z" />
    <glyph glyph-name="asterisk" unicode="*" horiz-adv-x="1024" 
d="M787 1244h23v152h-23v-152zM723 1550l-21 9l-79 -149h22zM404 1638l-18 -13l80 -131q1 1 12 19zM710 1094l20 10l-71 120q-20 -1 -22 0zM413 1010l19 -12l53 111q-13 23 -12 21zM692 1566l-135 72l-90 -168l-90 151l-130 -79l88 -146h-182v-153h194l-83 -155l135 -73
l77 146l92 -153l130 77l-94 158h173v153h-177z" />
    <glyph glyph-name="plus" unicode="+" horiz-adv-x="1014" 
d="M635 822h33v307h-33v-307zM370 1129v-336h-345v-235h345v-362h235v362h312v235h-312v336h-235zM946 560h32v233h-32v-233zM635 526v-326h33v326h-33z" />
    <glyph glyph-name="comma" unicode="," horiz-adv-x="645" 
d="M258 51l-289 -313h264l288 313h-263zM552 50l-281 -314l47 1l282 314z" />
    <glyph glyph-name="hyphen" unicode="-" horiz-adv-x="670" 
d="M533 391h31v204h-31v-204zM100 391h420v204h-420v-204z" />
    <glyph glyph-name="hyphen" unicode="&#xad;" horiz-adv-x="670" 
d="M533 391h31v204h-31v-204zM100 391h420v204h-420v-204z" />
    <glyph glyph-name="period" unicode="." horiz-adv-x="557" 
d="M377 -7h41v240h-41v-240zM120 -7h222v240h-222v-240z" />
    <glyph glyph-name="slash" unicode="/" horiz-adv-x="866" 
d="M626 1418l-626 -1417h200l626 1417h-200zM855 1418l-622 -1418l30 1l621 1417h-29z" />
    <glyph glyph-name="zero" unicode="0" horiz-adv-x="1561" 
d="M284 1029q0 62 34 103q3 3 69 59q-53 0 -96 -46q-45 -48 -46 -113v-623q2 -66 48 -115q44 -49 98 -49q-66 56 -71 62q-36 42 -36 105v617zM1184 413q0 -81 -58 -139t-139 -58h-572q-81 0 -139 58t-58 139l-2 608q0 82 58 139q57 58 139 58h576q82 0 140 -58
q57 -57 57 -139zM1379 1226q50 -95 50 -183l2 -662l-1 -20q-7 -88 -62 -179q-64 -103 -159 -150q109 24 183 117q73 93 80 215v676q0 121 -66 218q-68 97 -175 129q93 -54 148 -161zM1403 1021q0 171 -121 292q-121 120 -292 120l-4 1h-569l-5 -1q-171 0 -292 -120
q-121 -121 -121 -292l3 -608q0 -171 121 -292t292 -121h572q171 0 292 121t121 292z" />
    <glyph glyph-name="one" unicode="1" horiz-adv-x="750" 
d="M506 236h39v1198h-39v-1198zM666 2h38v218h-38v-218zM101 1434v-217h162v-1001h-162v-216h533v216h-154v1216h-2v2h-377z" />
    <glyph glyph-name="two" unicode="2" horiz-adv-x="1500" 
d="M440 539q-50 -53 -50 -122q0 -3 1 -84v-84h23v170q3 121 143 181q-69 -9 -117 -61zM426 1129l-14 -211l38 -2l15 211zM1177 623q76 22 140 80q36 27 72 79q72 105 72 235q0 196 -115 303q-69 64 -144 79q93 -45 152 -132q56 -83 70 -186q15 -102 -16 -197
q-32 -101 -108 -171q-64 -58 -123 -90zM366 224v95q1 90 1 94q0 82 57 139q58 58 139 58h424q171 0 291 120q121 121 121 292q0 170 -121 291q-120 120 -291 120l-4 1h-456l-4 -1q-136 0 -244 -80q-107 -78 -148 -203l-72 4l-14 -215l343 -22l13 216l-38 2q59 84 160 84
l6 -1h452l6 1q81 0 139 -58q57 -58 57 -139t-57 -139q-58 -57 -139 -57h-424q-171 0 -292 -121q-120 -120 -120 -291v-191h2v-222h1224v223h-1011zM1401 0h36v222h-36v-222z" />
    <glyph glyph-name="three" unicode="3" horiz-adv-x="1549" 
d="M726 544h34v38h-34v-38zM726 852h34v44h-34v-44zM1267 717q133 123 133 304q0 171 -121 292q-121 120 -292 120l-4 1h-500l-5 -1q-135 0 -244 -80q-107 -78 -148 -204l-72 5l-14 -216l343 -22l14 216l-39 2q59 84 161 84h507q82 0 140 -58q57 -57 57 -139q0 -75 -49 -131
q-50 -55 -123 -64h-310v73h-215v-361h215v70h310q73 -9 123 -64q49 -56 49 -131q0 -82 -57 -139q-58 -58 -140 -58h-507q-102 0 -161 84l39 2l-14 216l-343 -22l14 -216l72 5q41 -126 148 -204q109 -80 244 -80l5 -1h500l4 1q171 0 292 120q121 121 121 292q0 181 -133 304z
M382 305l38 3l-14 212l-39 -3zM420 1126l-38 3l-15 -212l39 -3zM1462 1016q0 196 -116 304q-69 64 -143 79q186 -90 222 -310q16 -100 -12 -194q-28 -100 -99 -171h-1l-1 -1l-5 -5q76 -70 107 -170q30 -95 14 -197t-72 -184q-60 -87 -153 -132q74 15 143 79q116 108 116 304
q0 182 -126 299q126 119 126 299z" />
    <glyph glyph-name="four" unicode="4" horiz-adv-x="1400" 
d="M303 611l25 -14l350 602l-25 14zM630 1223h100v-651h-486zM1096 1225h28v209h-28v-209zM1047 0h28v207h-28v-207zM967 233h38v108h-38v-108zM1238 363h28v209h-28v-209zM967 597h38v603h-38v-603zM260 1432v-209h126l-386 -650l2 -1h-2v-210h730v-155h-87v-207h382v207
h-85v155h275v210h-275v651h134v209h-814z" />
    <glyph glyph-name="five" unicode="5" horiz-adv-x="1500" 
d="M355 849h35l53 353l-4 1h-30zM1113 807q58 -32 122 -90q76 -69 108 -169q31 -95 16 -197q-14 -102 -70 -185q-59 -87 -151 -131q74 15 143 79q115 106 115 301q0 129 -72 234q-36 52 -72 78q-63 58 -139 80zM403 516l-39 -3l15 -210l38 3zM1214 700q-120 120 -290 120
h-597l54 400h615v-145h213v359h-1153v-214h110l-87 -641l211 -29l8 55l612 1h13q81 0 139 -58q57 -57 57 -138t-57 -138q-58 -58 -139 -58l-5 1h-437l-6 -1q-101 0 -159 83l38 3l-13 214l-341 -22l14 -214l71 5q41 -125 147 -203q108 -79 243 -79l4 -1h444l4 1
q170 0 289 120q118 119 118 289t-120 290zM1270 1433h-35v-359h35v359z" />
    <glyph glyph-name="six" unicode="6" horiz-adv-x="1561" 
d="M284 576h-38v-178q1 -63 47 -105q43 -38 99 -38q-11 10 -37 26q-24 16 -35 26q-36 33 -36 94v175zM416 216q-81 0 -139 58t-58 139l-1 196l762 1h13q82 0 139 -58q58 -58 58 -139q0 -82 -58 -139q-57 -58 -139 -58h-577zM246 855h38v184q0 60 36 94q11 10 35 26
q26 16 37 26q-56 0 -99 -39q-46 -41 -47 -105v-186zM1459 900h39v216h-39v-216zM1400 1144q-57 187 -211 233q126 -74 178 -233h33zM1285 705q-121 121 -291 121h-2l-775 -1v196q0 82 57 139q58 58 140 58h530q116 0 173 -102h-72v-216h387v216h-85q-33 138 -144 227
q-113 90 -258 90l-4 1h-528q-171 0 -292 -121t-121 -292v-608q0 -170 122 -292q122 -121 294 -121h573l5 1q170 0 291 120q121 121 121 292t-121 292zM1218 788q92 -45 152 -133q56 -83 70 -185q15 -103 -16 -199q-33 -101 -109 -170q-64 -58 -123 -90q76 22 140 80
q36 26 73 79q72 105 72 235q0 196 -116 303q-69 64 -143 80z" />
    <glyph glyph-name="seven" unicode="7" horiz-adv-x="1500" 
d="M0 1434v-374h223v151h870v-81l-720 -731v-175h-97v-224h401v224h-81v98l720 731v381h-1316zM705 0h41v224h-41v-224zM260 1059h37v124h-37v-124zM1345 1434v-373l-727 -748h-1v-69h40v68l724 744v378h-36z" />
    <glyph glyph-name="eight" unicode="8" horiz-adv-x="1600" 
d="M390 826q-74 9 -123 64q-50 56 -50 131q0 82 58 139q58 58 139 58h599q81 0 139 -58q58 -57 58 -139q0 -75 -50 -131q-49 -55 -123 -64h-647zM414 216q-81 0 -139 58q-58 57 -58 139q0 75 50 131q49 55 123 64h647q74 -9 123 -64q50 -56 50 -131q0 -82 -58 -139
q-58 -58 -139 -58h-599zM1489 1016q0 196 -116 304q-69 64 -144 79q186 -90 222 -310q16 -100 -11 -194q-29 -100 -100 -171q-1 0 -2 -1q-4 -5 -5 -5q76 -70 107 -170q30 -95 14 -197q-15 -102 -72 -184q-60 -87 -153 -132q75 15 144 79q116 108 116 304q0 182 -127 299
q127 119 127 299zM1293 717q133 123 133 304q0 171 -121 292q-121 120 -292 120l-4 1h-591l-4 -1q-171 0 -292 -120q-121 -121 -121 -292q0 -181 133 -304q-133 -123 -133 -304q0 -171 121 -292q121 -120 292 -120l4 -1h591l4 1q171 0 292 120q121 121 121 292
q0 181 -133 304z" />
    <glyph glyph-name="nine" unicode="9" horiz-adv-x="1645" 
d="M363 1029q0 62 34 102q3 3 69 59q-53 0 -96 -46q-45 -47 -46 -112v-15q2 -65 47 -114q45 -48 98 -48q-65 55 -71 61q-35 42 -35 104v9zM510 824h-13q-82 0 -140 58q-57 58 -57 139q0 82 57 139q58 58 140 58h577q81 0 139 -58t58 -139v-196zM474 319h39v213h-39v-213z
M1490 1021q0 170 -123 292q-122 121 -293 121h-574l-4 -1q-171 0 -292 -120q-121 -121 -121 -292t121 -292t292 -121h2l774 1l1 -196q0 -82 -58 -139q-57 -58 -139 -58h-531q-116 0 -172 102h71v216h-386v-216h85q33 -138 144 -227q113 -90 258 -90l4 -1h527q171 0 292 121
t121 292zM1465 1225q49 -94 49 -182l3 -661l-2 -19q-6 -88 -62 -179q-63 -102 -158 -150q109 25 182 117q74 93 81 214v675q0 120 -67 217t-173 129q91 -54 147 -161z" />
    <glyph glyph-name="colon" unicode=":" horiz-adv-x="557" 
d="M375 656h41v240h-41v-240zM118 656h222v240h-222v-240zM377 43h40v240h-40v-240zM120 43h221v240h-221v-240z" />
    <glyph glyph-name="semicolon" unicode=";" horiz-adv-x="653" 
d="M475 666h41v240h-41v-240zM218 666h222v240h-222v-240zM221 272l-252 -272h230l250 272h-228zM476 271l-245 -273l42 1l245 273z" />
    <glyph glyph-name="semicolon" unicode="&#x37e;" horiz-adv-x="653" 
d="M475 666h41v240h-41v-240zM218 666h222v240h-222v-240zM221 272l-252 -272h230l250 272h-228zM476 271l-245 -273l42 1l245 273z" />
    <glyph glyph-name="less" unicode="&#x3c;" horiz-adv-x="1014" 
d="M654 1251l-9 -9l130 -129l-388 -388l-1 -1l383 -385l-130 -130l9 -9l146 146l-2 2v1l-373 375l380 380l1 1zM128 727h1l-2 -3l498 -498l114 113l-386 386l391 392l-113 113z" />
    <glyph glyph-name="equal" unicode="=" horiz-adv-x="1014" 
d="M770 645h30v201h-30v-201zM234 645h512v201h-512v-201zM770 398h30v201h-30v-201zM234 398h512v201h-512v-201z" />
    <glyph glyph-name="greater" unicode="&#x3e;" horiz-adv-x="1014" 
d="M353 1295l-17 -16l530 -531l-528 -531l17 -17l545 548l-1 1zM198 1147l398 -398l-392 -392l115 -116l507 507l-2 3l-511 511z" />
    <glyph glyph-name="question" unicode="?" 
d="M990 429v-14h29v31q3 150 177 225q-85 -12 -145 -76q-62 -66 -62 -151q0 -5 1 -15zM524 1072l48 -3l18 262l-48 3zM1558 1669q115 -56 188 -164q70 -103 87 -230q18 -127 -20 -246q-40 -125 -134 -211q-80 -72 -153 -111q95 27 174 99q45 33 90 98q89 130 89 291
q0 242 -143 375q-86 80 -178 99zM1652 1562q-149 149 -361 149l-5 1h-619l-5 -1q-168 0 -303 -99q-132 -97 -183 -252l-89 5l-17 -267l424 -27l18 267l-48 3q73 104 199 104l6 -1h615l6 1q101 0 173 -72q71 -71 71 -172t-71 -172q-72 -72 -173 -72h-16l-70 1h-2
q-212 0 -362 -150q-149 -150 -149 -361v-15q1 -10 1 -17l266 1v15q1 10 1 15q0 101 71 173q71 71 172 71h17h70h2q212 0 361 149q150 150 150 362q0 211 -150 361zM990 26h28v276h-28v-276zM691 27h268v278h-268v-278z" />
    <glyph glyph-name="at" unicode="@" horiz-adv-x="2019" 
d="M972 622q-83 -10 -151 -80t-68 -199q0 -107 64 -194t183 -87q97 5 126 167v476q-54 -63 -154 -83zM1360 29q-63 1 -100.5 18t-61.5 54q-29 -37 -82 -64.5t-133 -27.5q-144 0 -256.5 100.5t-112.5 233.5q1 87 53 166.5t132.5 115t173.5 49.5q67 16 110 42.5t43 74.5
q-2 69 -41 125t-129 56q-72 0 -121.5 -59t-50.5 -125h-45v159q0 20 72 40q73 20 178 20q109 -2 193.5 -64.5t84.5 -157.5v-589q0 -117 94 -117q185 35 267 191.5t82 382.5q-20 335 -232 540q-197 188 -480 188q-205 0 -392.5 -137.5t-269.5 -355.5q-67 -178 -67 -361
q0 -313 129.5 -511.5t305 -290.5t318.5 -92q274 0 575 208v-75q-263 -184 -571 -184q-240 0 -461 122.5t-343 342t-122 461.5t124 464.5t345.5 342t456.5 119.5q362 0 609 -230t247 -566q0 -270 -176 -439q-175 -168 -346 -170z" />
    <glyph glyph-name="A" unicode="A" 
d="M816 1188l-348 -501h36l350 501h-38zM801 1216h328l385 -556h-1098zM1546 1216h39v218h-39v-218zM517 0h39v218h-39v-218zM1858 0h39v218h-39v-218zM427 246h39v168h-39v-168zM1445 1188l331 -474v-468h39v468l-331 474h-39zM396 1434v-218h140l-354 -511v-487h-82v-218
h390v218h-90v224h1130v-224h-90v-218h390v218h-82v487l-354 511h124v218h-1122z" />
    <glyph glyph-name="B" unicode="B" horiz-adv-x="1843" 
d="M426 244h38v338h-38v-338zM426 853h38v338h-38v-338zM398 216v393h895q82 0 139 -57q58 -58 58 -139q0 -82 -58 -140q-57 -57 -139 -57h-895zM398 1218l879 1h14q81 0 139 -57q57 -58 57 -139q0 -82 -57 -139q-57 -58 -139 -58h-893v392zM1713 798q59 98 59 229
q0 193 -118 303q-69 64 -149 77q92 -45 151 -132q56 -83 71 -186q14 -103 -16 -198q-33 -101 -109 -171q78 -69 112 -172q31 -97 17 -201q-14 -105 -71 -189q-61 -88 -155 -132q66 16 133 72q135 113 135 296q0 145 -60 253q-30 54 -60 78q30 24 60 73zM1570 719
q134 123 134 304q0 171 -121 291q-120 120 -291 120h-1192v-216h82v-392h-52v-217h52v-393h-82v-216h1190l4 1q171 0 291 120q121 121 121 292q0 183 -136 306z" />
    <glyph glyph-name="C" unicode="C" horiz-adv-x="1900" 
d="M1642 137q66 79 88 176h-36q-18 -82 -72 -157q-61 -85 -145 -126q93 20 165 107zM1265 1434h-752q-171 0 -292 -121t-121 -292v-608q0 -170 122 -292q122 -121 294 -121h751q151 0 267 98q114 97 139 243h83v216h-386v-216h79q-22 -56 -71 -90q-50 -35 -112 -35h-750
q-81 0 -139 58t-58 139l-2 608q0 82 57 139q58 58 140 58h755q116 0 172 -102h-71v-216h386v216h-85q-33 138 -144 227q-113 90 -258 90zM1784 900h38v216h-38v-216zM1784 341h36v216h-36v-216zM393 1146q-46 -41 -47 -105v-643q1 -63 47 -105q43 -38 99 -38q-11 10 -37 26
q-24 16 -35 26q-36 33 -36 94v638q0 60 36 94q11 10 35 26q26 16 37 26q-56 0 -99 -39zM1724 1144q-57 187 -211 233q127 -74 178 -233h33z" />
    <glyph glyph-name="D" unicode="D" horiz-adv-x="1952" 
d="M448 243h38v947h-38v-947zM420 216v1002h926q81 0 139 -58t58 -139l2 -608q0 -82 -57 -139q-58 -58 -140 -58h-928zM1738 1224q49 -95 49 -183l3 -662l-2 -20q-6 -88 -62 -179q-63 -103 -159 -150q110 24 183 117q74 93 81 215v676q0 121 -67 218t-174 129
q92 -54 148 -161zM1759 1021q0 171 -121 292t-292 121h-1246v-216h103v-1002h-103v-216h1245l4 1q171 0 292 120q121 121 121 292z" />
    <glyph glyph-name="E" unicode="E" horiz-adv-x="1900" 
d="M100 1434v-216h84v-402h-58v-216h58v-384h-84v-216h1620v386h-216v-170h-1104v384h433v-82h216v386h-216v-88h-433v402h1103v-172h216v172h1v216h-1620zM1747 0h39v386h-39v-386zM428 244h38v329h-38v-329zM1076 518h39v386h-39v-386zM428 842h38v349h-38v-349z
M1747 1046h39v388h-39v-388z" />
    <glyph glyph-name="F" unicode="F" horiz-adv-x="1900" 
d="M100 1434v-216h103v-402h-50v-216h50v-384h-103v-216h423v216h-103v384h432v-82h217v386h-217v-88h-432v402h1103v-170h216v386h-1639zM551 0h38v216h-38v-216zM447 244h39v328h-39v-328zM1097 518h38v387h-38v-387zM447 843h39v348h-39v-348zM1767 1048h39v386h-39v-386
z" />
    <glyph glyph-name="G" unicode="G" horiz-adv-x="1900" 
d="M1690 379l-2 -19q-6 -87 -63 -179q-65 -102 -161 -150q104 24 181 129q71 97 79 202v103h-35zM938 490h507v-76q0 -82 -58 -140t-139 -58h-751q-81 0 -139 58t-58 140l-2 608q0 81 57 139q58 58 140 58l5 -1h737l6 1q114 0 171 -100h-66v-216h380v216h-84
q-33 137 -144 226q-113 89 -257 89l-4 1h-745q-171 0 -292 -122q-121 -121 -121 -292v-608q0 -171 122 -292t294 -121h751q171 0 292 121t121 292l1 77h73v217h-797v-217zM1794 1119h-38v-216h38v216zM1762 491h39v216h-39v-216zM374 1141q-46 -42 -47 -106l-1 4v-637h1
q1 -64 47 -105q43 -38 99 -38q-11 9 -37 26q-24 15 -35 26q-36 33 -36 94v628q0 61 36 94q11 10 35 26q26 17 37 26q-56 0 -99 -38zM1696 1147q-57 187 -210 233q125 -73 177 -233h33z" />
    <glyph glyph-name="H" unicode="H" 
d="M1384 1434v-217h104v-400h-1068v400h103v217h-423v-217h104v-1000h-104v-217h423v217h-103v384h1068v-384h-104v-217h423v217h-103v1000h103v217h-423zM551 0h39v217h-39v-217zM1836 0h38v217h-38v-217zM448 244h39v329h-39v-329zM448 845h39v345h-39v-345zM1732 244h38
v947h-38v-947zM551 1218h39v216h-39v-216zM1835 1218h39v216h-39v-216z" />
    <glyph glyph-name="I" unicode="I" horiz-adv-x="800" 
d="M100 1438v-217h163v-1004h-163v-217h534v217h-154v1004h154v217h-534zM662 0h39v217h-39v-217zM507 245h39v948h-39v-948zM662 1221h39v217h-39v-217z" />
    <glyph glyph-name="J" unicode="J" 
d="M1755 387l-2 -19q-6 -89 -62 -180q-64 -104 -160 -152q109 25 181 120q72 93 79 217v816h-38zM1302 1216h205l-2 -800q0 -82 -58 -140t-140 -58h-709q-82 0 -140 58t-58 140v59h128v218h-428v-218h82v-59q0 -173 122 -294q122 -122 294 -122h709q172 0 294 122
q122 121 122 294l1 800h106v218h-528v-218zM595 693h-39v-218h39v218zM1857 1216h39v218h-39v-218zM429 448v-48q0 -61 45 -105q44 -43 98 -43q-9 8 -36 27q-22 16 -34 27q-34 36 -34 97v45h-39z" />
    <glyph glyph-name="K" unicode="K" horiz-adv-x="2037" 
d="M1862 1220h39v217h-39v-217zM552 0h39v217h-39v-217zM1863 0h39v217h-39v-217zM429 245h39v359h-39v-359zM429 877h39v316h-39v-316zM1755 1193v-258l-398 -193l20 -10l368 -178v-307h39v308l-387 187l396 192v259h-38zM1412 1437v-217h98v-134l-484 -236h-625v370h123
v217h-424v-217h84v-1003h-84v-217h424v217h-123v416h625l474 -232v-184h-88v-217h424v217h-119v320l-419 204l429 210v269h107v217h-422zM552 1220h39v217h-39v-217z" />
    <glyph glyph-name="L" unicode="L" horiz-adv-x="1859" 
d="M722 1217h38v217h-38v-217zM1749 0h38v400h-38v-400zM443 244h38v946h-38v-946zM103 1434v-217h99v-1000h-102v-217h1621v400h-213v-183h-1093v1000h280v217h-592z" />
    <glyph glyph-name="M" unicode="M" horiz-adv-x="2200" 
d="M100 1434v-217h101v-1000h-101v-217h400v217h-83v1000h2l521 -516h-104v-217h463v217h-109l510 505v-989h-84v-217h399v217h-99v1000h101v217h-395l-557 -553l-557 552v1h-408zM527 0h39v217h-39v-217zM2043 0h38v217h-38v-217zM1326 484h38v217h-38v-217zM1257 729h35
l381 376v34zM445 244h38v869l-38 38v-907zM1944 244h39v946h-39v-946zM2044 1217h39v216h-39v-216zM1065 921l17 17l-500 496h-35z" />
    <glyph glyph-name="N" unicode="N" horiz-adv-x="1859" 
d="M1696 1224h39v218h-39v-218zM1695 2h39v217h-39v-217zM529 2h39v217h-39v-217zM447 246h39v759l-39 46v-805zM1595 247h39v950h-39v-950zM538 1442v-72l785 -952v48l-746 905v71h-39zM1272 1442v-218h78v-882l-839 1018v82h-410v-218h101v-1005h-102v-217h401v217h-82
v910l847 -1027v-100h82l2 -2l2 2h315v217h-99v1005h101v218h-397z" />
    <glyph glyph-name="O" unicode="O" horiz-adv-x="1847" 
d="M384 1029q0 62 35 103q2 3 69 59q-54 0 -97 -46q-44 -48 -45 -113v-623q1 -66 47 -115q45 -49 98 -49q-66 56 -71 62q-36 42 -36 105v617zM1463 413q0 -81 -58 -139q-57 -58 -139 -58h-750q-82 0 -139 58q-58 58 -58 139l-3 608q0 82 58 139q58 58 139 58h756
q81 0 139 -58q58 -57 58 -139zM1659 1226q49 -95 49 -183l2 -662l-1 -20q-6 -88 -62 -179q-63 -103 -159 -150q109 24 183 117t80 215l1 7v669q0 121 -67 218t-174 129q92 -54 148 -161zM1682 1021q0 171 -121 292q-121 120 -292 120l-4 1h-748l-4 -1q-171 0 -292 -120
q-121 -121 -121 -292l3 -608q0 -171 120 -292q121 -121 292 -121h752q171 0 292 121t121 292z" />
    <glyph glyph-name="P" unicode="P" horiz-adv-x="1855" 
d="M425 852h38v338h-38v-338zM397 825v393h902q81 0 139 -58q57 -57 57 -139q0 -81 -57 -139q-58 -57 -139 -57h-902zM617 0h38v216h-38v-216zM1512 1400q92 -45 152 -132q56 -83 70 -186q14 -102 -16 -198q-33 -101 -108 -170q-65 -58 -124 -90q118 38 175 95q30 23 59 72
q59 99 59 229q0 193 -118 303q-69 64 -149 77zM1591 1313q-121 121 -292 121h-1199v-216h81v-393h-43v-216h43v-393h-79v-216h487v216h-192v393h898l4 1q171 0 292 120q120 121 120 292t-120 291zM463 581h-38v-337h38v337z" />
    <glyph glyph-name="Q" unicode="Q" horiz-adv-x="1900" 
d="M391 1019q0 64 35 105q3 4 71 61q-55 0 -99 -47q-45 -49 -46 -116v-638q1 -67 48 -118q46 -49 101 -49q-68 57 -73 63q-37 43 -37 107v632zM1462 391l5 -6l1 28l-29 1zM1496 389q0 -32 -9 -61l-68 68l-156 -156l51 -52q-10 -1 -20 -1h-768q-83 0 -143 59q-59 59 -59 143
l-2 622q0 84 59 143t142 59l6 -1h762l6 1q83 0 143 -59q59 -59 59 -143zM1720 1011q0 175 -124 299q-123 123 -298 123l-5 1h-766l-4 -1q-175 0 -299 -123q-124 -124 -124 -299l3 -623q0 -175 123 -299q124 -124 299 -124h770q103 0 195 48l157 -158l156 156l-151 151
q66 103 66 226zM1745 173q41 76 46 165l1 7v686q0 123 -69 222q-69 100 -178 133q94 -55 151 -165q51 -97 51 -188l2 -678l-1 -20q-6 -81 -55 -168l-2 -2h1v-1l4 -3l130 -130l30 30z" />
    <glyph glyph-name="R" unicode="R" horiz-adv-x="1900" 
d="M425 853h38v337h-38v-337zM397 826v392h900q81 0 139 -57q57 -58 57 -139t-57 -139q-58 -57 -139 -57h-900zM522 2h39v216h-39v-216zM1513 1400q92 -45 151 -133q56 -82 71 -185q14 -102 -17 -198q-32 -101 -108 -170q-64 -58 -123 -90q118 39 175 95q29 23 59 72
q59 99 59 229q0 193 -118 303q-69 63 -149 77zM1290 610h4l4 1q170 0 291 120q120 121 120 291q0 171 -120 291q-121 121 -291 121h-1198v-216h81v-392h-43v-216h43v-392h-81v-216h395v216h-98v392h651l197 -392h-61v-216h170l1 -2l4 2h302v216h-174zM463 583h-38v-338h38
v338zM1537 245l-169 340h-33l169 -340h33zM1689 2h38v216h-38v-216z" />
    <glyph glyph-name="S" unicode="S" horiz-adv-x="1839" 
d="M442 1144q-46 -53 -46 -123q0 -68 44 -120q43 -51 109 -63q-129 55 -129 183q0 126 135 184q-68 -9 -113 -61zM1723 946l-14 212l-38 -3l14 -211zM1451 791q92 -45 151 -133q56 -82 71 -185q14 -103 -16 -198q-33 -101 -109 -171q-64 -58 -123 -90q76 22 140 80
q36 27 72 79q73 105 73 236q0 195 -116 302q-69 64 -143 80zM1623 1179q-33 96 -92 151q-68 64 -137 74q142 -69 200 -229q14 2 29 4zM508 519l-38 -3l15 -214l38 3zM1529 704q-121 121 -292 121h-672q-81 0 -139 57q-57 58 -57 140q0 81 57 139q58 57 139 57h616
q102 0 161 -83l-39 -3l14 -215l342 22l-13 215l-73 -4q-41 125 -147 203q-109 80 -244 80l-5 1h-608l-4 -1q-171 0 -292 -120q-121 -121 -121 -292t121 -291q121 -121 292 -121h672q81 0 139 -57q57 -58 57 -140q0 -81 -57 -139q-58 -57 -139 -57h-678q-98 0 -157 79l54 4
l-13 215l-343 -21l14 -216l54 4q42 -124 148 -202q108 -78 243 -78l4 -1h670l4 1q171 0 292 120q121 121 121 292t-121 291z" />
    <glyph glyph-name="T" unicode="T" horiz-adv-x="1727" 
d="M65 1434v-407h214v193h435v-1006h-84v-214h390v214h-91v1006h451v-193h214v407h-1529zM1048 1h38v214h-38v-214zM307 1027h38v165h-38v-165zM957 242h38v953h-38v-953zM1622 1027h38v407h-38v-407z" />
    <glyph glyph-name="U" unicode="U" horiz-adv-x="2089" 
d="M469 414q0 -62 38 -104q17 -15 73 -60q-55 0 -101 47q-48 49 -49 114v777h39v-774zM1804 1187h38v-831q-7 -124 -79 -217q-72 -95 -181 -120q96 48 160 152q56 92 63 180l1 20zM557 1216h-39v218h39v-218zM1470 1434h389v-218h-83l-2 -800q0 -172 -122 -294t-294 -122
h-757q-173 0 -294 122q-122 122 -122 294l-2 800h-82v218h389v-218h-89l2 -799q0 -83 58 -141t140 -58h756q83 0 141 58t58 141l2 799h-88v218zM1888 1434h39v-218h-39v218z" />
    <glyph glyph-name="V" unicode="V" horiz-adv-x="1908" 
d="M1301 1434v-216h102l-491 -1001h-8l-491 1001h106v216h-463v-216h116l491 -1001h-78v-216h644v216h-76l491 1001h120v216h-463zM1257 0h39v218h-39v-218zM458 1190l465 -949l15 30l-451 919h-29zM1662 1192l-464 -948h29l465 948h-30zM547 1218h38v216h-38v-216z
M1792 1218h38v216h-38v-216z" />
    <glyph glyph-name="W" unicode="W" horiz-adv-x="2441" 
d="M1766 1217h156l-142 -869l-444 721h49v216h-400v-216h49l-442 -717l-141 865h163v217h-473v-217h90l164 -1001h-79l1 -216h312l556 900l555 -900h318v217h-80l164 1000h97v217h-473v-217zM2267 1217h38v217h-38v-217zM2086 0h39v216h-39v-216zM681 1434h-38v-217h38v217z
M1452 1285h-39v-217h39v217zM653 0h30l517 823l-15 25zM1384 1041l385 -613q2 6 4 18q2 14 3 20l-361 575h-31zM2010 244h31l159 946h-32zM483 1190l126 -749q14 22 25 38l-119 711h-32z" />
    <glyph glyph-name="X" unicode="X" horiz-adv-x="1964" 
d="M1420 1434v-217h91v-132l-560 -243l-553 239v136h92v217h-389v-217h80v-274h1l-2 -4l529 -228l-528 -229v-264h-81v-217h390v217h-92v122l556 240l556 -240v-122h-97v-217h388v217h-74v265l-531 229l532 230v275h80v217h-388zM517 0h39v218h-39v-218zM1828 0h39v218h-39
v-218zM425 325v-80h39v78l507 220l-23 10zM426 1190v-91l523 -227l22 9l-506 220v89h-39zM1756 1190v-265l-489 -213l21 -9l466 -202v-265h39v267l-482 210l484 210v267h-39zM518 1217h38v217h-38v-217zM1836 1218h38v216h-38v-216z" />
    <glyph glyph-name="Y" unicode="Y" horiz-adv-x="1960" 
d="M1427 1434v-216h77v-162l-553 -369l-554 369v162h92v216h-389v-216h81v-277l667 -445v-280h-117v-216h452v216h-119v286l656 438v278h92v216h-385zM1211 0h39v216h-39v-216zM426 1190v-118l527 -351l18 13l-507 338v118h-38zM1747 1190v-264l-655 -437v-246h38v247
l656 437v263h-39zM517 1218h38v215h-38v-215zM1840 1218h39v215h-39v-215z" />
    <glyph glyph-name="Z" unicode="Z" horiz-adv-x="1888" 
d="M145 1434v-385h216v169h1016l-1232 -1002v-216h1581v385h-215v-169h-1024l1232 1002v216h-1574zM1754 0h38v386h-38v-386zM388 1049h39v142h-39v-142zM1747 1434v-229l-1183 -962h38l1184 962v229h-39z" />
    <glyph glyph-name="bracketleft" unicode="[" horiz-adv-x="758" 
d="M563 1377h37v198h-37v-198zM164 1575v-1h-1v-1694h201v1h178v198h-178v1298h178v198h-378zM390 118h36v1229h-36v-1229zM563 -119h37v198h-37v-198z" />
    <glyph glyph-name="backslash" unicode="\" horiz-adv-x="900" 
d="M257 1430l618 -1430h25l-617 1429zM60 1429l622 -1429h175l-620 1429h-177z" />
    <glyph glyph-name="bracketright" unicode="]" horiz-adv-x="758" 
d="M613 -199h39v1762h-39v-1762zM198 1563v-206h185v-1350h-185v-207h172h13h209v1763h-1v0h-393z" />
    <glyph glyph-name="underscore" unicode="_" horiz-adv-x="1904" 
d="M44 -34h1729v-168h-1729v168zM1839 -34v-165h-38v165h38z" />
    <glyph glyph-name="grave" unicode="`" horiz-adv-x="1024" 
d="M488 1353l222 -252l45 -1l-222 253h-45zM200 1352l229 -252h250l-227 252h-252z" />
    <glyph glyph-name="a" unicode="a" 
d="M1546 1216h39v218h-39v-218zM396 1434v-218h140l-354 -511v-487h-82v-218h390v218h-90v224h1130v-224h-90v-218h390v218h-82v487l-354 511h124v218h-1122zM801 1216h328l385 -556h-1098zM816 1188l-348 -501h36l350 501h-38zM1445 1188l331 -474v-468h39v468l-331 474
h-39zM427 246h39v168h-39v-168zM1858 0h39v218h-39v-218zM517 0h39v218h-39v-218z" />
    <glyph glyph-name="b" unicode="b" horiz-adv-x="1843" 
d="M426 244h38v338h-38v-338zM426 853h38v338h-38v-338zM1713 798q59 98 59 229q0 193 -118 303q-69 64 -149 77q92 -45 151 -132q56 -83 71 -186q14 -103 -16 -198q-33 -101 -109 -171q78 -69 112 -172q31 -97 17 -201q-14 -105 -71 -189q-61 -88 -155 -132q66 16 133 72
q135 113 135 296q0 145 -60 253q-30 54 -60 78q30 24 60 73zM1288 216h-890v393h895q82 0 139 -57q58 -58 58 -139q0 -82 -58 -140q-57 -57 -139 -57h-5zM398 1218l879 1h14q81 0 139 -57q57 -58 57 -139q0 -82 -57 -139q-57 -58 -139 -58h-6h-887v392zM1570 719
q134 123 134 304q0 171 -121 291q-120 120 -291 120h-2h-90h-1100v-216h82v-392h-52v-217h52v-393h-82v-216h1190l4 1q171 0 291 120q121 121 121 292q0 183 -136 306z" />
    <glyph glyph-name="c" unicode="c" horiz-adv-x="1900" 
d="M1642 137q66 79 88 176h-36q-18 -82 -72 -157q-61 -85 -145 -126q93 20 165 107zM1724 1144q-57 187 -211 233q127 -74 178 -233h33zM393 1146q-46 -41 -47 -105v0v-643v0q1 -63 47 -105q43 -38 99 -38q-11 10 -37 26q-24 16 -35 26q-36 33 -36 94v638q0 60 36 94
q11 10 35 26q26 16 37 26q-56 0 -99 -39zM1784 341h36v216h-36v-216zM1784 900h38v216h-38v-216zM1265 1434h-752q-171 0 -292 -121t-121 -292v-608q0 -170 122 -292q122 -121 294 -121h751q151 0 267 98q114 97 139 243h83v216h-386v-216h79q-22 -56 -71 -90
q-50 -35 -112 -35h-750q-81 0 -139 58t-58 139l-2 608q0 82 57 139q58 58 140 58h5h744h6q116 0 172 -102h-71v-216h386v216h-85q-33 138 -144 227q-113 90 -258 90z" />
    <glyph glyph-name="d" unicode="d" horiz-adv-x="1952" 
d="M448 243h38v947h-38v-947zM420 216v1002h926q81 0 139 -58t58 -139l2 -608q0 -82 -57 -139q-58 -58 -140 -58h-928zM1738 1224q49 -95 49 -183l3 -662l-2 -20q-6 -88 -62 -179q-63 -103 -159 -150q110 24 183 117q74 93 81 215v676q0 121 -67 218t-174 129
q92 -54 148 -161zM1759 1021q0 171 -121 292t-292 121h-1246v-216h103v-1002h-103v-216h1245l4 1q171 0 292 120q121 121 121 292z" />
    <glyph glyph-name="e" unicode="e" horiz-adv-x="1900" 
d="M100 1434v-216h84v-402h-58v-216h58v-384h-84v-216h1620v386h-216v-170h-1104v384h433v-82h216v386h-216v-88h-433v402h1103v-172h216v172h1v216h-1620zM1747 1046h39v388h-39v-388zM428 842h38v349h-38v-349zM1076 518h39v386h-39v-386zM428 244h38v329h-38v-329z
M1747 0h39v386h-39v-386z" />
    <glyph glyph-name="f" unicode="f" horiz-adv-x="1900" 
d="M100 1434v-216h103v-402h-50v-216h50v-384h-103v-216h423v216h-103v384h432v-82h217v386h-217v-88h-432v402h1103v-170h216v386h-1639zM1767 1048h39v386h-39v-386zM447 843h39v348h-39v-348zM1097 518h38v387h-38v-387zM447 244h39v328h-39v-328zM551 0h38v216h-38v-216
z" />
    <glyph glyph-name="g" unicode="g" horiz-adv-x="1900" 
d="M1690 379v0l-2 -19q-6 -87 -63 -179q-65 -102 -161 -150q104 24 181 129q71 97 79 202v7v96h-35zM1696 1147q-57 187 -210 233q125 -73 177 -233h33zM374 1141q-46 -42 -47 -106l-1 4v-637h1q1 -64 47 -105q43 -38 99 -38q-11 9 -37 26q-24 15 -35 26q-36 33 -36 94v628
q0 61 36 94q11 10 35 26q26 17 37 26q-56 0 -99 -38zM1762 491h39v216h-39v-216zM1794 1119h-38v-216h38v216zM938 490h507v-76q0 -82 -58 -140t-139 -58h-751q-81 0 -139 58t-58 140l-2 608q0 81 57 139q58 58 140 58l5 -1h737l6 1q114 0 171 -100h-66v-216h380v216h-84
q-33 137 -144 226q-113 89 -257 89l-4 1h-741h-4q-171 0 -292 -122q-121 -121 -121 -292v-608q0 -171 122 -292t294 -121h751q171 0 292 121t121 292l1 77h73v217h-797v-217z" />
    <glyph glyph-name="h" unicode="h" 
d="M1384 1434v-217h104v-400h-1068v400h103v217h-423v-217h104v-1000h-104v-217h423v217h-103v384h1068v-384h-104v-217h423v217h-103v1000h103v217h-423zM1835 1218h39v216h-39v-216zM551 1218h39v216h-39v-216zM1732 244h38v947h-38v-947zM448 845h39v345h-39v-345z
M448 244h39v329h-39v-329zM1836 0h38v217h-38v-217zM551 0h39v217h-39v-217z" />
    <glyph glyph-name="i" unicode="i" horiz-adv-x="800" 
d="M100 1438v-217h163v-1004h-163v-217h534v217h-154v1004h154v217h-534zM662 1221h39v217h-39v-217zM507 245h39v948h-39v-948zM662 0h39v217h-39v-217z" />
    <glyph glyph-name="j" unicode="j" 
d="M1755 387v0l-2 -19q-6 -89 -62 -180q-64 -104 -160 -152q109 25 181 120q72 93 79 217v7v809h-38zM429 448v-51v3q0 -61 45 -105q44 -43 98 -43q-9 8 -36 27q-22 16 -34 27q-34 36 -34 97v45h-39zM1857 1216h39v218h-39v-218zM595 693h-39v-218h39v218zM1302 1216h205
l-2 -800q0 -82 -58 -140t-140 -58h-709q-82 0 -140 58t-58 140v59h128v218h-428v-218h82v-59q0 -173 122 -294q122 -122 294 -122h709q172 0 294 122q122 121 122 294l1 800h106v218h-528v-218z" />
    <glyph glyph-name="k" unicode="k" horiz-adv-x="2045" 
d="M1907 1220h39v217h-39v-217zM597 1220h39v217h-39v-217zM1457 1437v-217h98v-134l-484 -236h-625v370h123v217h-424v-217h84v-1003h-84v-217h424v217h-123v416h625l474 -232v-184h-88v-217h424v217h-119v320l-419 204l429 210v269h107v217h-422zM1800 1193v-258
l-398 -193l20 -10l368 -178v-307h39v308l-387 187l396 192v259h-38zM474 877h39v316h-39v-316zM474 245h39v359h-39v-359zM1908 0h39v217h-39v-217zM597 0h39v217h-39v-217z" />
    <glyph glyph-name="l" unicode="l" horiz-adv-x="1859" 
d="M722 1217h38v217h-38v-217zM103 1434v-217h99v-1000h-102v-217h1621v400h-213v-183h-1093v1000h280v217h-592zM443 244h38v946h-38v-946zM1749 0h38v400h-38v-400z" />
    <glyph glyph-name="m" unicode="m" horiz-adv-x="2200" 
d="M507 1434v0h-407v-217h101v-1000h-101v-217h400v217h-83v1000h2l521 -516h-104v-217h463v217h-109l510 505v-989h-84v-217h399v217h-99v1000h101v217h-395l-557 -553l-557 552v1v0h-1zM1065 921l17 17l-500 496h-35zM2044 1217h39v216h-39v-216zM1944 244h39v946h-39
v-946zM445 244h38v869l-38 38v-907zM1257 729h35l381 376v34zM1326 484h38v217h-38v-217zM2043 0h38v217h-38v-217zM527 0h39v217h-39v-217z" />
    <glyph glyph-name="n" unicode="n" horiz-adv-x="1859" 
d="M1696 1224h39v218h-39v-218zM1272 1442v-218h78v-882l-839 1018v82h-410v-218h101v-1005h-102v-217h401v217h-82v910l847 -1027v-100h82l2 -2l2 2h315v217h-99v1005h101v218h-397zM538 1442v-72l785 -952v48l-746 905v71h-39zM1595 247h39v950h-39v-950zM447 246h39v759
l-39 46v-805zM529 2h39v217h-39v-217zM1695 2h39v217h-39v-217z" />
    <glyph glyph-name="o" unicode="o" horiz-adv-x="1847" 
d="M1659 1226q49 -95 49 -183l2 -662v0l-1 -20q-6 -88 -62 -179q-63 -103 -159 -150q109 24 183 117t80 215l1 7v669q0 121 -67 218t-174 129q92 -54 148 -161zM384 1029q0 62 35 103q2 3 69 59q-54 0 -97 -46q-44 -48 -45 -113v6v-629v0q1 -66 47 -115q45 -49 98 -49
q-66 56 -71 62q-36 42 -36 105v617zM1463 413q0 -81 -58 -139q-57 -58 -139 -58h-750q-82 0 -139 58q-58 58 -58 139l-3 608q0 82 58 139q58 58 139 58h6h744h6q81 0 139 -58q58 -57 58 -139zM1682 1021q0 171 -121 292q-121 120 -292 120l-4 1h-748l-4 -1q-171 0 -292 -120
q-121 -121 -121 -292l3 -608q0 -171 120 -292q121 -121 292 -121h752q171 0 292 121t121 292z" />
    <glyph glyph-name="p" unicode="p" horiz-adv-x="1855" 
d="M617 0h38v216h-38v-216zM463 581h-38v-337h38v337zM425 852h38v338h-38v-338zM1293 825h-896v393h902q81 0 139 -58q57 -57 57 -139q0 -81 -57 -139q-58 -57 -139 -57h-6zM1591 1313q-121 121 -292 121h-1199v-216h81v-393h-43v-216h43v-393h-79v-216h487v216h-192v393
h898l4 1q171 0 292 120q120 121 120 292t-120 291zM1512 1400q92 -45 152 -132q56 -83 70 -186q14 -102 -16 -198q-33 -101 -108 -170q-65 -58 -124 -90q118 38 175 95q30 23 59 72q59 99 59 229q0 193 -118 303q-69 64 -149 77z" />
    <glyph glyph-name="q" unicode="q" horiz-adv-x="1900" 
d="M1496 389q0 -32 -9 -61l-68 68l-156 -156l51 -52q-10 -1 -20 -1h-768q-83 0 -143 59q-59 59 -59 143l-2 622q0 84 59 143t142 59l6 -1h762l6 1q83 0 143 -59q59 -59 59 -143zM1720 1011q0 175 -124 299q-123 123 -298 123l-5 1h-766l-4 -1q-175 0 -299 -123
q-124 -124 -124 -299l3 -623q0 -175 123 -299q124 -124 299 -124h770q103 0 195 48l157 -158l156 156l-151 151q66 103 66 226zM391 1019q0 64 35 105q3 4 71 61q-55 0 -99 -47q-45 -49 -46 -116v-638q1 -67 48 -118q46 -49 101 -49q-68 57 -73 63q-37 43 -37 107v632z
M1462 391l5 -6l1 28l-29 1zM1745 173q41 76 46 165l1 7v686q0 123 -69 222q-69 100 -178 133q94 -55 151 -165q51 -97 51 -188l2 -678l-1 -20q-6 -81 -55 -168l-2 -2h1q0 1 0 -1l4 -3l130 -130l30 30z" />
    <glyph glyph-name="r" unicode="r" horiz-adv-x="1900" 
d="M522 2h39v216h-39v-216zM1689 2h38v216h-38v-216zM1537 245l-169 340h-33l169 -340h33zM463 583h-38v-338h38v338zM425 853h38v337h-38v-337zM397 826v392h900q81 0 139 -57q57 -58 57 -139t-57 -139q-58 -57 -139 -57h-5h-895zM1290 610h4l4 1q170 0 291 120
q120 121 120 291q0 171 -120 291q-121 121 -291 121h-1198v-216h81v-392h-43v-216h43v-392h-81v-216h395v216h-98v392h651l197 -392h-61v-216h170l1 -2l4 2h302v216h-174zM1513 1400q92 -45 151 -133q56 -82 71 -185q14 -102 -17 -198q-32 -101 -108 -170q-64 -58 -123 -90
q118 39 175 95q29 23 59 72q59 99 59 229q0 193 -118 303q-69 63 -149 77z" />
    <glyph glyph-name="s" unicode="s" horiz-adv-x="1839" 
d="M442 1144q-46 -53 -46 -123q0 -68 44 -120q43 -51 109 -63q-129 55 -129 183q0 126 135 184q-68 -9 -113 -61zM1529 704q-121 121 -292 121h-672q-81 0 -139 57q-57 58 -57 140q0 81 57 139q58 57 139 57h616q102 0 161 -83l-39 -3l14 -215l342 22l-13 215l-73 -4
q-41 125 -147 203q-109 80 -244 80l-5 1h-608l-4 -1q-171 0 -292 -120q-121 -121 -121 -292t121 -291q121 -121 292 -121h672q81 0 139 -57q57 -58 57 -140q0 -81 -57 -139q-58 -57 -139 -57h-678q-98 0 -157 79l54 4l-13 215l-343 -21l14 -216l54 4q42 -124 148 -202
q108 -78 243 -78l4 -1h670l4 1q171 0 292 120q121 121 121 292t-121 291zM508 519l-38 -3l15 -214l38 3zM1623 1179q-33 96 -92 151q-68 64 -137 74q142 -69 200 -229q14 2 29 4zM1451 791q92 -45 151 -133q56 -82 71 -185q14 -103 -16 -198q-33 -101 -109 -171
q-64 -58 -123 -90q76 22 140 80q36 27 72 79q73 105 73 236q0 195 -116 302q-69 64 -143 80zM1723 946l-14 212l-38 -3l14 -211z" />
    <glyph glyph-name="t" unicode="t" horiz-adv-x="1727" 
d="M65 1434v-407h214v193h435v-1006h-84v-214h390v214h-91v1006h451v-193h214v407h-1529zM1622 1027h38v407h-38v-407zM957 242h38v953h-38v-953zM307 1027h38v165h-38v-165zM1048 1h38v214h-38v-214z" />
    <glyph glyph-name="u" unicode="u" horiz-adv-x="2089" 
d="M1846 371v0l-1 -20q-7 -88 -63 -180q-64 -104 -160 -152q109 25 181 120q72 93 79 217v7v824h-38zM509 1188h-39v-777v0q1 -65 49 -114q46 -47 101 -47q-79 66 -73 60q-38 42 -38 104v774zM1928 1216h39v218h-39v-218zM597 1434h-39v-218h39v218zM1510 1216h88l-2 -799
q0 -83 -58 -141t-141 -58h-756q-82 0 -140 58t-58 141l-2 799h89v218h-389v-218h82l2 -800q0 -172 122 -294q121 -122 294 -122h757q172 0 294 122t122 294l2 800h83v218h-389v-218z" />
    <glyph glyph-name="v" unicode="v" horiz-adv-x="1908" 
d="M1301 1434v-216h102l-491 -1001h-8l-491 1001h106v216h-463v-216h116l491 -1001h-78v-216h644v216h-76l491 1001h120v216h-463zM1792 1218h38v216h-38v-216zM547 1218h38v216h-38v-216zM1662 1192l-464 -948h29l465 948h-30zM458 1190l465 -949l15 30l-451 919h-29z
M1257 0h39v218h-39v-218z" />
    <glyph glyph-name="w" unicode="w" horiz-adv-x="2441" 
d="M1766 1217h156l-142 -869l-444 721h49v216h-400v-216h49l-442 -717l-141 865h163v217h-473v-217h90l164 -1001h-79l1 -216h312v0v0l556 900l555 -900v0h318v217h-80l164 1000h97v217h-473v-217zM483 1190l126 -749q14 22 25 38l-119 711h-32zM2010 244h31l159 946h-32z
M1384 1041l385 -613q2 6 4 18q2 14 3 20l-361 575h-31zM653 0h30l517 823l-15 25zM1452 1285h-39v-217h39v217zM681 1434h-38v-217h38v217zM2086 0h39v216h-39v-216zM2267 1217h38v217h-38v-217z" />
    <glyph glyph-name="x" unicode="x" horiz-adv-x="1964" 
d="M1420 1434v-217h91v-132l-560 -243l-553 239v136h92v217h-389v-217h80v-274h1l-2 -4l529 -228l-528 -229v-264h-81v-217h390v217h-92v122l556 240l556 -240v-122h-97v-217h388v217h-74v264v0v1l-531 229l532 230v275h80v217h-388zM1836 1218h38v216h-38v-216zM518 1217
h38v217h-38v-217zM1756 1190v-265l-489 -213l21 -9l466 -202v-265h39v267l-482 210l484 210v267h-39zM426 1190v-91l523 -227l22 9l-506 220v89h-39zM425 325v-80h39v78l507 220l-23 10zM1828 0h39v218h-39v-218zM517 0h39v218h-39v-218z" />
    <glyph glyph-name="y" unicode="y" horiz-adv-x="1960" 
d="M1427 1434v-216h77v-162l-553 -369l-554 369v162h92v216h-389v-216h81v-277v0v0l667 -445v-280h-117v-216h452v216h-119v286l656 438v278h92v216h-385zM1840 1218h39v215h-39v-215zM517 1218h38v215h-38v-215zM1747 1190v-264l-655 -437v0v0v-246h38v247l656 437v263h-39
zM426 1190v-118l527 -351l18 13l-507 338v118h-38zM1211 0h39v216h-39v-216z" />
    <glyph glyph-name="z" unicode="z" horiz-adv-x="1888" 
d="M145 1434v-385h216v169h1016l-1232 -1002v-216h1581v385h-215v-169h-1024l1232 1002v216h-1574zM1747 1434v-229l-1183 -962h38l1184 962v229h-39zM388 1049h39v142h-39v-142zM1754 0h38v386h-38v-386z" />
    <glyph glyph-name="braceleft" unicode="{" horiz-adv-x="1014" 
d="M748 1367h42v233h-42v-233zM287 1600v-1h-1v-746l-185 -188l185 -187v-869h231v1h206v233h-206v1524h206v233h-436zM548 -111h41v1443h-41v-1443zM748 -390h42v233h-42v-233z" />
    <glyph glyph-name="bar" unicode="|" horiz-adv-x="1014" 
d="M312 1577h275v-1995h-275v1995zM602 1577h37v-1995h-37v1995z" />
    <glyph glyph-name="braceright" unicode="}" horiz-adv-x="1014" 
d="M611 882v717v0v1h-435v-232h205v-1517h-205v-232h205v-1h230v855l201 205zM865 701l-188 191v708h-42v-716v0l205 -208l-206 -209l1 -1v-847h42v841l213 216z" />
    <glyph glyph-name="asciitilde" unicode="~" horiz-adv-x="1014" 
d="M250 800l-183 -200h200l112 123l81 -123h200l181 200h-198l-115 -125l-79 125h-199zM296 599h36l58 66l-15 25zM527 703l13 14l-49 79h-25zM866 800l-177 -201h36l177 201h-36z" />
    <glyph glyph-name="dieresis" unicode="&#xa8;" horiz-adv-x="1024" 
d="M799 1139h31v181h-31v-181zM620 1139h167v181h-167v-181zM280 1139h30v181h-30v-181zM100 1139h167v181h-167v-181z" />
    <glyph glyph-name="acute" unicode="&#xb4;" horiz-adv-x="1024" 
d="M429 1353l-229 -251h251l227 251h-249zM708 1352l-221 -252l45 1l222 252z" />
    <glyph glyph-name="Agrave" unicode="&#xc0;" 
d="M816 1188l-348 -501h36l350 501h-38zM801 1216h328l385 -556h-1098zM1546 1216h39v218h-39v-218zM517 0h39v218h-39v-218zM1858 0h39v218h-39v-218zM427 246h39v168h-39v-168zM1445 1188l331 -474v-468h39v468l-331 474h-39zM396 1434v-218h140l-354 -511v-487h-82v-218
h390v218h-90v224h1130v-224h-90v-218h390v218h-82v487l-354 511h124v218h-1122zM933 1753l222 -252l45 -1l-222 253h-45zM645 1752l229 -252h250l-227 252h-252z" />
    <glyph glyph-name="Aacute" unicode="&#xc1;" 
d="M816 1188l-348 -501h36l350 501h-38zM801 1216h328l385 -556h-1098zM1546 1216h39v218h-39v-218zM517 0h39v218h-39v-218zM1858 0h39v218h-39v-218zM427 246h39v168h-39v-168zM1445 1188l331 -474v-468h39v468l-331 474h-39zM396 1434v-218h140l-354 -511v-487h-82v-218
h390v218h-90v224h1130v-224h-90v-218h390v218h-82v487l-354 511h124v218h-1122zM973 1753l-229 -251h251l227 251h-249zM1252 1752l-221 -252l45 1l222 252z" />
    <glyph glyph-name="Acircumflex" unicode="&#xc2;" 
d="M816 1188l-348 -501h36l350 501h-38zM801 1216h328l385 -556h-1098zM1546 1216h39v218h-39v-218zM517 0h39v218h-39v-218zM1858 0h39v218h-39v-218zM427 246h39v168h-39v-168zM1445 1188l331 -474v-468h39v468l-331 474h-39zM396 1434v-218h140l-354 -511v-487h-82v-218
h390v218h-90v224h1130v-224h-90v-218h390v218h-82v487l-354 511h124v218h-1122zM908 1582l-72 -82h48l49 61zM1027 1500h250l-227 252h-8l1 1h-249l-229 -251h251l104 115zM1086 1753l225 -253h42l-222 253h-45z" />
    <glyph glyph-name="Atilde" unicode="&#xc3;" 
d="M816 1188l-348 -501h36l350 501h-38zM801 1216h328l385 -556h-1098zM1546 1216h39v218h-39v-218zM517 0h39v218h-39v-218zM1858 0h39v218h-39v-218zM427 246h39v168h-39v-168zM1445 1188l331 -474v-468h39v468l-331 474h-39zM396 1434v-218h140l-354 -511v-487h-82v-218
h390v218h-90v224h1130v-224h-90v-218h390v218h-82v487l-354 511h124v218h-1122zM738 1731l-183 -200h200l112 123l81 -123h200l181 200h-198l-115 -125l-79 125h-199zM784 1530h36l58 66l-15 25zM1015 1634l13 14l-49 79h-25zM1354 1731l-177 -201h36l177 201h-36z" />
    <glyph glyph-name="Adieresis" unicode="&#xc4;" 
d="M816 1188l-348 -501h36l350 501h-38zM801 1216h328l385 -556h-1098zM1546 1216h39v218h-39v-218zM517 0h39v218h-39v-218zM1858 0h39v218h-39v-218zM427 246h39v168h-39v-168zM1445 1188l331 -474v-468h39v468l-331 474h-39zM396 1434v-218h140l-354 -511v-487h-82v-218
h390v218h-90v224h1130v-224h-90v-218h390v218h-82v487l-354 511h124v218h-1122zM1300 1529h30v181h-30v-181zM1120 1529h167v181h-167v-181zM780 1529h30v181h-30v-181zM600 1529h167v181h-167v-181z" />
    <glyph glyph-name="Ccedilla" unicode="&#xc7;" horiz-adv-x="1900" 
d="M1642 137q66 79 88 176h-36q-18 -82 -72 -157q-61 -85 -145 -126q93 20 165 107zM1724 1144q-57 187 -211 233q127 -74 178 -233h33zM393 1146q-46 -41 -47 -105v0v-643v0q1 -63 47 -105q43 -38 99 -38q-11 10 -37 26q-24 16 -35 26q-36 33 -36 94v638q0 60 36 94
q11 10 35 26q26 16 37 26q-56 0 -99 -39zM1784 341h36v216h-36v-216zM1784 900h38v216h-38v-216zM1265 1434h-752q-171 0 -292 -121t-121 -292v-608q0 -170 122 -292q122 -121 294 -121h751q151 0 267 98q114 97 139 243h83v216h-386v-216h79q-22 -56 -71 -90
q-50 -35 -112 -35h-750q-81 0 -139 58t-58 139l-2 608q0 82 57 139q58 58 140 58h5h744h6q116 0 172 -102h-71v-216h386v216h-85q-33 138 -144 227q-113 90 -258 90zM789 -30l-151 -169h251l149 169h-249zM1068 -31l-143 -170l45 1l144 170z" />
    <glyph glyph-name="Egrave" unicode="&#xc8;" 
d="M888 1753l222 -252l45 -1l-222 253h-45zM600 1752l229 -252h250l-227 252h-252zM100 1434v-216h84v-402h-58v-216h58v-384h-84v-216h1620v386h-216v-170h-1104v384h433v-82h216v386h-216v-88h-433v402h1103v-172h216v172h1v216h-1620zM1747 1046h39v388h-39v-388z
M428 842h38v349h-38v-349zM1076 518h39v386h-39v-386zM428 244h38v329h-38v-329zM1747 0h39v386h-39v-386z" />
    <glyph glyph-name="Eacute" unicode="&#xc9;" 
d="M973 1753l-229 -251h251l227 251h-249zM1252 1752l-221 -252l45 1l222 252zM100 1434v-216h84v-402h-58v-216h58v-384h-84v-216h1620v386h-216v-170h-1104v384h433v-82h216v386h-216v-88h-433v402h1103v-172h216v172h1v216h-1620zM1747 1046h39v388h-39v-388zM428 842h38
v349h-38v-349zM1076 518h39v386h-39v-386zM428 244h38v329h-38v-329zM1747 0h39v386h-39v-386z" />
    <glyph glyph-name="Ecircumflex" unicode="&#xca;" 
d="M908 1582l-72 -82h48l49 61zM1027 1500h250l-227 252h-8l1 1h-249l-229 -251h251l104 115zM1086 1753l225 -253h42l-222 253h-45zM100 1434v-216h84v-402h-58v-216h58v-384h-84v-216h1620v386h-216v-170h-1104v384h433v-82h216v386h-216v-88h-433v402h1103v-172h216v172
h1v216h-1620zM1747 1046h39v388h-39v-388zM428 842h38v349h-38v-349zM1076 518h39v386h-39v-386zM428 244h38v329h-38v-329zM1747 0h39v386h-39v-386z" />
    <glyph glyph-name="Edieresis" unicode="&#xcb;" 
d="M1300 1529h30v181h-30v-181zM1120 1529h167v181h-167v-181zM780 1529h30v181h-30v-181zM600 1529h167v181h-167v-181zM100 1434v-216h84v-402h-58v-216h58v-384h-84v-216h1620v386h-216v-170h-1104v384h433v-82h216v386h-216v-88h-433v402h1103v-172h216v172h1v216h-1620
zM1747 1046h39v388h-39v-388zM428 842h38v349h-38v-349zM1076 518h39v386h-39v-386zM428 244h38v329h-38v-329zM1747 0h39v386h-39v-386z" />
    <glyph glyph-name="Igrave" unicode="&#xcc;" horiz-adv-x="843" 
d="M332 1753l222 -252l45 -1l-222 253h-45zM44 1752l229 -252h250l-227 252h-252zM100 1438v-217h163v-1004h-163v-217h534v217h-154v1004h154v217h-534zM662 1221h39v217h-39v-217zM507 245h39v948h-39v-948zM662 0h39v217h-39v-217z" />
    <glyph glyph-name="Iacute" unicode="&#xcd;" horiz-adv-x="858" 
d="M427 1753l-229 -251h251l227 251h-249zM706 1752l-221 -252l45 1l222 252zM100 1438v-217h163v-1004h-163v-217h534v217h-154v1004h154v217h-534zM662 1221h39v217h-39v-217zM507 245h39v948h-39v-948zM662 0h39v217h-39v-217z" />
    <glyph glyph-name="Icircumflex" unicode="&#xce;" horiz-adv-x="848" 
d="M358 1602l-72 -82h48l49 61zM477 1520h250l-227 252h-8l1 1h-249l-229 -251h251l104 115zM536 1773l225 -253h42l-222 253h-45zM100 1438v-217h163v-1004h-163v-217h534v217h-154v1004h154v217h-534zM662 1221h39v217h-39v-217zM507 245h39v948h-39v-948zM662 0h39v217
h-39v-217z" />
    <glyph glyph-name="Idieresis" unicode="&#xcf;" 
d="M737 1549h31v181h-31v-181zM558 1549h167v181h-167v-181zM218 1549h30v181h-30v-181zM38 1549h167v181h-167v-181zM100 1438v-217h163v-1004h-163v-217h534v217h-154v1004h154v217h-534zM662 1221h39v217h-39v-217zM507 245h39v948h-39v-948zM662 0h39v217h-39v-217z" />
    <glyph glyph-name="Ntilde" unicode="&#xd1;" horiz-adv-x="1859" 
d="M1696 1224h39v218h-39v-218zM1272 1442v-218h78v-882l-839 1018v82h-410v-218h101v-1005h-102v-217h401v217h-82v910l847 -1027v-100h82l2 -2l2 2h315v217h-99v1005h101v218h-397zM538 1442v-72l785 -952v48l-746 905v71h-39zM1595 247h39v950h-39v-950zM447 246h39v759
l-39 46v-805zM529 2h39v217h-39v-217zM1695 2h39v217h-39v-217zM648 1731l-183 -200h200l112 123l81 -123h200l181 200h-198l-115 -125l-79 125h-199zM694 1530h36l58 66l-15 25zM925 1634l13 14l-49 79h-25zM1264 1731l-177 -201h36l177 201h-36z" />
    <glyph glyph-name="Ograve" unicode="&#xd2;" horiz-adv-x="1944" 
d="M933 1753l222 -252l45 -1l-222 253h-45zM645 1752l229 -252h250l-227 252h-252zM1709 1226q49 -95 49 -183l2 -662v0l-1 -20q-6 -88 -62 -179q-63 -103 -159 -150q109 24 183 117t80 215l1 7v669q0 121 -67 218t-174 129q92 -54 148 -161zM434 1029q0 62 35 103
q2 3 69 59q-54 0 -97 -46q-44 -48 -45 -113v6v-629v0q1 -66 47 -115q45 -49 98 -49q-66 56 -71 62q-36 42 -36 105v617zM1513 413q0 -81 -58 -139q-57 -58 -139 -58h-750q-82 0 -139 58q-58 58 -58 139l-3 608q0 82 58 139q58 58 139 58h6h744h6q81 0 139 -58
q58 -57 58 -139zM1732 1021q0 171 -121 292q-121 120 -292 120l-4 1h-748l-4 -1q-171 0 -292 -120q-121 -121 -121 -292l3 -608q0 -171 120 -292q121 -121 292 -121h752q171 0 292 121t121 292z" />
    <glyph glyph-name="Oacute" unicode="&#xd3;" horiz-adv-x="1900" 
d="M973 1753l-229 -251h251l227 251h-249zM1252 1752l-221 -252l45 1l222 252zM1659 1226q49 -95 49 -183l2 -662v0l-1 -20q-6 -88 -62 -179q-63 -103 -159 -150q109 24 183 117t80 215l1 7v669q0 121 -67 218t-174 129q92 -54 148 -161zM384 1029q0 62 35 103q2 3 69 59
q-54 0 -97 -46q-44 -48 -45 -113v6v-629v0q1 -66 47 -115q45 -49 98 -49q-66 56 -71 62q-36 42 -36 105v617zM1463 413q0 -81 -58 -139q-57 -58 -139 -58h-750q-82 0 -139 58q-58 58 -58 139l-3 608q0 82 58 139q58 58 139 58h6h744h6q81 0 139 -58q58 -57 58 -139z
M1682 1021q0 171 -121 292q-121 120 -292 120l-4 1h-748l-4 -1q-171 0 -292 -120q-121 -121 -121 -292l3 -608q0 -171 120 -292q121 -121 292 -121h752q171 0 292 121t121 292z" />
    <glyph glyph-name="Ocircumflex" unicode="&#xd4;" horiz-adv-x="1900" 
d="M908 1582l-72 -82h48l49 61zM1027 1500h250l-227 252h-8l1 1h-249l-229 -251h251l104 115zM1086 1753l225 -253h42l-222 253h-45zM1659 1226q49 -95 49 -183l2 -662v0l-1 -20q-6 -88 -62 -179q-63 -103 -159 -150q109 24 183 117t80 215l1 7v669q0 121 -67 218t-174 129
q92 -54 148 -161zM384 1029q0 62 35 103q2 3 69 59q-54 0 -97 -46q-44 -48 -45 -113v6v-629v0q1 -66 47 -115q45 -49 98 -49q-66 56 -71 62q-36 42 -36 105v617zM1463 413q0 -81 -58 -139q-57 -58 -139 -58h-750q-82 0 -139 58q-58 58 -58 139l-3 608q0 82 58 139
q58 58 139 58h6h744h6q81 0 139 -58q58 -57 58 -139zM1682 1021q0 171 -121 292q-121 120 -292 120l-4 1h-748l-4 -1q-171 0 -292 -120q-121 -121 -121 -292l3 -608q0 -171 120 -292q121 -121 292 -121h752q171 0 292 121t121 292z" />
    <glyph glyph-name="Otilde" unicode="&#xd5;" horiz-adv-x="1900" 
d="M738 1731l-183 -200h200l112 123l81 -123h200l181 200h-198l-115 -125l-79 125h-199zM784 1530h36l58 66l-15 25zM1015 1634l13 14l-49 79h-25zM1354 1731l-177 -201h36l177 201h-36zM1659 1226q49 -95 49 -183l2 -662v0l-1 -20q-6 -88 -62 -179q-63 -103 -159 -150
q109 24 183 117t80 215l1 7v669q0 121 -67 218t-174 129q92 -54 148 -161zM384 1029q0 62 35 103q2 3 69 59q-54 0 -97 -46q-44 -48 -45 -113v6v-629v0q1 -66 47 -115q45 -49 98 -49q-66 56 -71 62q-36 42 -36 105v617zM1463 413q0 -81 -58 -139q-57 -58 -139 -58h-750
q-82 0 -139 58q-58 58 -58 139l-3 608q0 82 58 139q58 58 139 58h6h744h6q81 0 139 -58q58 -57 58 -139zM1682 1021q0 171 -121 292q-121 120 -292 120l-4 1h-748l-4 -1q-171 0 -292 -120q-121 -121 -121 -292l3 -608q0 -171 120 -292q121 -121 292 -121h752q171 0 292 121
t121 292z" />
    <glyph glyph-name="Odieresis" unicode="&#xd6;" horiz-adv-x="1900" 
d="M1300 1529h30v181h-30v-181zM1120 1529h167v181h-167v-181zM780 1529h30v181h-30v-181zM600 1529h167v181h-167v-181zM1659 1226q49 -95 49 -183l2 -662v0l-1 -20q-6 -88 -62 -179q-63 -103 -159 -150q109 24 183 117t80 215l1 7v669q0 121 -67 218t-174 129
q92 -54 148 -161zM384 1029q0 62 35 103q2 3 69 59q-54 0 -97 -46q-44 -48 -45 -113v6v-629v0q1 -66 47 -115q45 -49 98 -49q-66 56 -71 62q-36 42 -36 105v617zM1463 413q0 -81 -58 -139q-57 -58 -139 -58h-750q-82 0 -139 58q-58 58 -58 139l-3 608q0 82 58 139
q58 58 139 58h6h744h6q81 0 139 -58q58 -57 58 -139zM1682 1021q0 171 -121 292q-121 120 -292 120l-4 1h-748l-4 -1q-171 0 -292 -120q-121 -121 -121 -292l3 -608q0 -171 120 -292q121 -121 292 -121h752q171 0 292 121t121 292z" />
    <glyph glyph-name="Ugrave" unicode="&#xd9;" 
d="M933 1753l222 -252l45 -1l-222 253h-45zM645 1752l229 -252h250l-227 252h-252zM444 414q0 -62 38 -104q17 -15 73 -60q-55 0 -101 47q-48 49 -49 114v777h39v-774zM1779 1187h38v-831q-7 -124 -79 -217q-72 -95 -181 -120q96 48 160 152q56 92 63 180l1 20zM532 1216
h-39v218h39v-218zM1445 1434h389v-218h-83l-2 -800q0 -172 -122 -294t-294 -122h-757q-173 0 -294 122q-122 122 -122 294l-2 800h-82v218h389v-218h-89l2 -799q0 -83 58 -141t140 -58h756q83 0 141 58t58 141l2 799h-88v218zM1863 1434h39v-218h-39v218z" />
    <glyph glyph-name="Uacute" unicode="&#xda;" 
d="M973 1753l-229 -251h251l227 251h-249zM1252 1752l-221 -252l45 1l222 252zM445 414q0 -62 38 -104q17 -15 73 -60q-55 0 -101 47q-48 49 -49 114v777h39v-774zM1780 1187h38v-831q-7 -124 -79 -217q-72 -95 -181 -120q96 48 160 152q56 92 63 180l1 20zM533 1216h-39
v218h39v-218zM1446 1434h389v-218h-83l-2 -800q0 -172 -122 -294t-294 -122h-757q-173 0 -294 122q-122 122 -122 294l-2 800h-82v218h389v-218h-89l2 -799q0 -83 58 -141t140 -58h756q83 0 141 58t58 141l2 799h-88v218zM1864 1434h39v-218h-39v218z" />
    <glyph glyph-name="Ucircumflex" unicode="&#xdb;" 
d="M908 1582l-72 -82h48l49 61zM1027 1500h250l-227 252h-8l1 1h-249l-229 -251h251l104 115zM1086 1753l225 -253h42l-222 253h-45zM442 414q0 -62 38 -104q17 -15 73 -60q-55 0 -101 47q-48 49 -49 114v777h39v-774zM1777 1187h38v-831q-7 -124 -79 -217
q-72 -95 -181 -120q96 48 160 152q56 92 63 180l1 20zM530 1216h-39v218h39v-218zM1443 1434h389v-218h-83l-2 -800q0 -172 -122 -294t-294 -122h-757q-173 0 -294 122q-122 122 -122 294l-2 800h-82v218h389v-218h-89l2 -799q0 -83 58 -141t140 -58h756q83 0 141 58t58 141
l2 799h-88v218zM1861 1434h39v-218h-39v218z" />
    <glyph glyph-name="Udieresis" unicode="&#xdc;" 
d="M1300 1529h30v181h-30v-181zM1120 1529h167v181h-167v-181zM780 1529h30v181h-30v-181zM600 1529h167v181h-167v-181zM440 414q0 -62 38 -104q17 -15 73 -60q-55 0 -101 47q-48 49 -49 114v777h39v-774zM1775 1187h38v-831q-7 -124 -79 -217q-72 -95 -181 -120
q96 48 160 152q56 92 63 180l1 20zM528 1216h-39v218h39v-218zM1441 1434h389v-218h-83l-2 -800q0 -172 -122 -294t-294 -122h-757q-173 0 -294 122q-122 122 -122 294l-2 800h-82v218h389v-218h-89l2 -799q0 -83 58 -141t140 -58h756q83 0 141 58t58 141l2 799h-88v218z
M1859 1434h39v-218h-39v218z" />
    <glyph glyph-name="Yacute" unicode="&#xdd;" 
d="M973 1753l-229 -251h251l227 251h-249zM1252 1752l-221 -252l45 1l222 252zM1427 1434v-216h77v-162l-553 -369l-554 369v162h92v216h-389v-216h81v-277v0v0l667 -445v-280h-117v-216h452v216h-119v286l656 438v278h92v216h-385zM1840 1218h39v215h-39v-215zM517 1218h38
v215h-38v-215zM1747 1190v-264l-655 -437v0v0v-246h38v247l656 437v263h-39zM426 1190v-118l527 -351l18 13l-507 338v118h-38zM1211 0h39v216h-39v-216z" />
    <glyph glyph-name="agrave" unicode="&#xe0;" 
d="M816 1188l-348 -501h36l350 501h-38zM801 1216h328l385 -556h-1098zM1546 1216h39v218h-39v-218zM517 0h39v218h-39v-218zM1858 0h39v218h-39v-218zM427 246h39v168h-39v-168zM1445 1188l331 -474v-468h39v468l-331 474h-39zM396 1434v-218h140l-354 -511v-487h-82v-218
h390v218h-90v224h1130v-224h-90v-218h390v218h-82v487l-354 511h124v218h-1122zM933 1753l222 -252l45 -1l-222 253h-45zM645 1752l229 -252h250l-227 252h-252z" />
    <glyph glyph-name="aacute" unicode="&#xe1;" 
d="M816 1188l-348 -501h36l350 501h-38zM801 1216h328l385 -556h-1098zM1546 1216h39v218h-39v-218zM517 0h39v218h-39v-218zM1858 0h39v218h-39v-218zM427 246h39v168h-39v-168zM1445 1188l331 -474v-468h39v468l-331 474h-39zM396 1434v-218h140l-354 -511v-487h-82v-218
h390v218h-90v224h1130v-224h-90v-218h390v218h-82v487l-354 511h124v218h-1122zM973 1753l-229 -251h251l227 251h-249zM1252 1752l-221 -252l45 1l222 252z" />
    <glyph glyph-name="acircumflex" unicode="&#xe2;" 
d="M816 1188l-348 -501h36l350 501h-38zM801 1216h328l385 -556h-1098zM1546 1216h39v218h-39v-218zM517 0h39v218h-39v-218zM1858 0h39v218h-39v-218zM427 246h39v168h-39v-168zM1445 1188l331 -474v-468h39v468l-331 474h-39zM396 1434v-218h140l-354 -511v-487h-82v-218
h390v218h-90v224h1130v-224h-90v-218h390v218h-82v487l-354 511h124v218h-1122zM908 1582l-72 -82h48l49 61zM1027 1500h250l-227 252h-8l1 1h-249l-229 -251h251l104 115zM1086 1753l225 -253h42l-222 253h-45z" />
    <glyph glyph-name="atilde" unicode="&#xe3;" 
d="M816 1188l-348 -501h36l350 501h-38zM801 1216h328l385 -556h-1098zM1546 1216h39v218h-39v-218zM517 0h39v218h-39v-218zM1858 0h39v218h-39v-218zM427 246h39v168h-39v-168zM1445 1188l331 -474v-468h39v468l-331 474h-39zM396 1434v-218h140l-354 -511v-487h-82v-218
h390v218h-90v224h1130v-224h-90v-218h390v218h-82v487l-354 511h124v218h-1122zM738 1731l-183 -200h200l112 123l81 -123h200l181 200h-198l-115 -125l-79 125h-199zM784 1530h36l58 66l-15 25zM1015 1634l13 14l-49 79h-25zM1354 1731l-177 -201h36l177 201h-36z" />
    <glyph glyph-name="adieresis" unicode="&#xe4;" 
d="M816 1188l-348 -501h36l350 501h-38zM801 1216h328l385 -556h-1098zM1546 1216h39v218h-39v-218zM517 0h39v218h-39v-218zM1858 0h39v218h-39v-218zM427 246h39v168h-39v-168zM1445 1188l331 -474v-468h39v468l-331 474h-39zM396 1434v-218h140l-354 -511v-487h-82v-218
h390v218h-90v224h1130v-224h-90v-218h390v218h-82v487l-354 511h124v218h-1122zM1300 1529h30v181h-30v-181zM1120 1529h167v181h-167v-181zM780 1529h30v181h-30v-181zM600 1529h167v181h-167v-181z" />
    <glyph glyph-name="ccedilla" unicode="&#xe7;" horiz-adv-x="1900" 
d="M1642 137q66 79 88 176h-36q-18 -82 -72 -157q-61 -85 -145 -126q93 20 165 107zM1724 1144q-57 187 -211 233q127 -74 178 -233h33zM393 1146q-46 -41 -47 -105v0v-643v0q1 -63 47 -105q43 -38 99 -38q-11 10 -37 26q-24 16 -35 26q-36 33 -36 94v638q0 60 36 94
q11 10 35 26q26 16 37 26q-56 0 -99 -39zM1784 341h36v216h-36v-216zM1784 900h38v216h-38v-216zM1265 1434h-752q-171 0 -292 -121t-121 -292v-608q0 -170 122 -292q122 -121 294 -121h751q151 0 267 98q114 97 139 243h83v216h-386v-216h79q-22 -56 -71 -90
q-50 -35 -112 -35h-750q-81 0 -139 58t-58 139l-2 608q0 82 57 139q58 58 140 58h5h744h6q116 0 172 -102h-71v-216h386v216h-85q-33 138 -144 227q-113 90 -258 90zM789 -30l-151 -169h251l149 169h-249zM1068 -31l-143 -170l45 1l144 170z" />
    <glyph glyph-name="egrave" unicode="&#xe8;" 
d="M888 1753l222 -252l45 -1l-222 253h-45zM600 1752l229 -252h250l-227 252h-252zM100 1434v-216h84v-402h-58v-216h58v-384h-84v-216h1620v386h-216v-170h-1104v384h433v-82h216v386h-216v-88h-433v402h1103v-172h216v172h1v216h-1620zM1747 1046h39v388h-39v-388z
M428 842h38v349h-38v-349zM1076 518h39v386h-39v-386zM428 244h38v329h-38v-329zM1747 0h39v386h-39v-386z" />
    <glyph glyph-name="eacute" unicode="&#xe9;" 
d="M973 1753l-229 -251h251l227 251h-249zM1252 1752l-221 -252l45 1l222 252zM100 1434v-216h84v-402h-58v-216h58v-384h-84v-216h1620v386h-216v-170h-1104v384h433v-82h216v386h-216v-88h-433v402h1103v-172h216v172h1v216h-1620zM1747 1046h39v388h-39v-388zM428 842h38
v349h-38v-349zM1076 518h39v386h-39v-386zM428 244h38v329h-38v-329zM1747 0h39v386h-39v-386z" />
    <glyph glyph-name="ecircumflex" unicode="&#xea;" 
d="M908 1582l-72 -82h48l49 61zM1027 1500h250l-227 252h-8l1 1h-249l-229 -251h251l104 115zM1086 1753l225 -253h42l-222 253h-45zM100 1434v-216h84v-402h-58v-216h58v-384h-84v-216h1620v386h-216v-170h-1104v384h433v-82h216v386h-216v-88h-433v402h1103v-172h216v172
h1v216h-1620zM1747 1046h39v388h-39v-388zM428 842h38v349h-38v-349zM1076 518h39v386h-39v-386zM428 244h38v329h-38v-329zM1747 0h39v386h-39v-386z" />
    <glyph glyph-name="edieresis" unicode="&#xeb;" 
d="M1300 1529h30v181h-30v-181zM1120 1529h167v181h-167v-181zM780 1529h30v181h-30v-181zM600 1529h167v181h-167v-181zM100 1434v-216h84v-402h-58v-216h58v-384h-84v-216h1620v386h-216v-170h-1104v384h433v-82h216v386h-216v-88h-433v402h1103v-172h216v172h1v216h-1620
zM1747 1046h39v388h-39v-388zM428 842h38v349h-38v-349zM1076 518h39v386h-39v-386zM428 244h38v329h-38v-329zM1747 0h39v386h-39v-386z" />
    <glyph glyph-name="igrave" unicode="&#xec;" horiz-adv-x="843" 
d="M332 1753l222 -252l45 -1l-222 253h-45zM44 1752l229 -252h250l-227 252h-252zM100 1438v-217h163v-1004h-163v-217h534v217h-154v1004h154v217h-534zM662 1221h39v217h-39v-217zM507 245h39v948h-39v-948zM662 0h39v217h-39v-217z" />
    <glyph glyph-name="iacute" unicode="&#xed;" horiz-adv-x="858" 
d="M427 1753l-229 -251h251l227 251h-249zM706 1752l-221 -252l45 1l222 252zM100 1438v-217h163v-1004h-163v-217h534v217h-154v1004h154v217h-534zM662 1221h39v217h-39v-217zM507 245h39v948h-39v-948zM662 0h39v217h-39v-217z" />
    <glyph glyph-name="icircumflex" unicode="&#xee;" horiz-adv-x="848" 
d="M358 1602l-72 -82h48l49 61zM477 1520h250l-227 252h-8l1 1h-249l-229 -251h251l104 115zM536 1773l225 -253h42l-222 253h-45zM100 1438v-217h163v-1004h-163v-217h534v217h-154v1004h154v217h-534zM662 1221h39v217h-39v-217zM507 245h39v948h-39v-948zM662 0h39v217
h-39v-217z" />
    <glyph glyph-name="idieresis" unicode="&#xef;" 
d="M737 1549h31v181h-31v-181zM558 1549h167v181h-167v-181zM218 1549h30v181h-30v-181zM38 1549h167v181h-167v-181zM100 1438v-217h163v-1004h-163v-217h534v217h-154v1004h154v217h-534zM662 1221h39v217h-39v-217zM507 245h39v948h-39v-948zM662 0h39v217h-39v-217z" />
    <glyph glyph-name="ntilde" unicode="&#xf1;" horiz-adv-x="1859" 
d="M1696 1224h39v218h-39v-218zM1272 1442v-218h78v-882l-839 1018v82h-410v-218h101v-1005h-102v-217h401v217h-82v910l847 -1027v-100h82l2 -2l2 2h315v217h-99v1005h101v218h-397zM538 1442v-72l785 -952v48l-746 905v71h-39zM1595 247h39v950h-39v-950zM447 246h39v759
l-39 46v-805zM529 2h39v217h-39v-217zM1695 2h39v217h-39v-217zM648 1731l-183 -200h200l112 123l81 -123h200l181 200h-198l-115 -125l-79 125h-199zM694 1530h36l58 66l-15 25zM925 1634l13 14l-49 79h-25zM1264 1731l-177 -201h36l177 201h-36z" />
    <glyph glyph-name="ograve" unicode="&#xf2;" horiz-adv-x="1944" 
d="M933 1753l222 -252l45 -1l-222 253h-45zM645 1752l229 -252h250l-227 252h-252zM1709 1226q49 -95 49 -183l2 -662v0l-1 -20q-6 -88 -62 -179q-63 -103 -159 -150q109 24 183 117t80 215l1 7v669q0 121 -67 218t-174 129q92 -54 148 -161zM434 1029q0 62 35 103
q2 3 69 59q-54 0 -97 -46q-44 -48 -45 -113v6v-629v0q1 -66 47 -115q45 -49 98 -49q-66 56 -71 62q-36 42 -36 105v617zM1513 413q0 -81 -58 -139q-57 -58 -139 -58h-750q-82 0 -139 58q-58 58 -58 139l-3 608q0 82 58 139q58 58 139 58h6h744h6q81 0 139 -58
q58 -57 58 -139zM1732 1021q0 171 -121 292q-121 120 -292 120l-4 1h-748l-4 -1q-171 0 -292 -120q-121 -121 -121 -292l3 -608q0 -171 120 -292q121 -121 292 -121h752q171 0 292 121t121 292z" />
    <glyph glyph-name="oacute" unicode="&#xf3;" horiz-adv-x="1900" 
d="M973 1753l-229 -251h251l227 251h-249zM1252 1752l-221 -252l45 1l222 252zM1659 1226q49 -95 49 -183l2 -662v0l-1 -20q-6 -88 -62 -179q-63 -103 -159 -150q109 24 183 117t80 215l1 7v669q0 121 -67 218t-174 129q92 -54 148 -161zM384 1029q0 62 35 103q2 3 69 59
q-54 0 -97 -46q-44 -48 -45 -113v6v-629v0q1 -66 47 -115q45 -49 98 -49q-66 56 -71 62q-36 42 -36 105v617zM1463 413q0 -81 -58 -139q-57 -58 -139 -58h-750q-82 0 -139 58q-58 58 -58 139l-3 608q0 82 58 139q58 58 139 58h6h744h6q81 0 139 -58q58 -57 58 -139z
M1682 1021q0 171 -121 292q-121 120 -292 120l-4 1h-748l-4 -1q-171 0 -292 -120q-121 -121 -121 -292l3 -608q0 -171 120 -292q121 -121 292 -121h752q171 0 292 121t121 292z" />
    <glyph glyph-name="ocircumflex" unicode="&#xf4;" horiz-adv-x="1900" 
d="M908 1582l-72 -82h48l49 61zM1027 1500h250l-227 252h-8l1 1h-249l-229 -251h251l104 115zM1086 1753l225 -253h42l-222 253h-45zM1659 1226q49 -95 49 -183l2 -662v0l-1 -20q-6 -88 -62 -179q-63 -103 -159 -150q109 24 183 117t80 215l1 7v669q0 121 -67 218t-174 129
q92 -54 148 -161zM384 1029q0 62 35 103q2 3 69 59q-54 0 -97 -46q-44 -48 -45 -113v6v-629v0q1 -66 47 -115q45 -49 98 -49q-66 56 -71 62q-36 42 -36 105v617zM1463 413q0 -81 -58 -139q-57 -58 -139 -58h-750q-82 0 -139 58q-58 58 -58 139l-3 608q0 82 58 139
q58 58 139 58h6h744h6q81 0 139 -58q58 -57 58 -139zM1682 1021q0 171 -121 292q-121 120 -292 120l-4 1h-748l-4 -1q-171 0 -292 -120q-121 -121 -121 -292l3 -608q0 -171 120 -292q121 -121 292 -121h752q171 0 292 121t121 292z" />
    <glyph glyph-name="otilde" unicode="&#xf5;" horiz-adv-x="1900" 
d="M738 1731l-183 -200h200l112 123l81 -123h200l181 200h-198l-115 -125l-79 125h-199zM784 1530h36l58 66l-15 25zM1015 1634l13 14l-49 79h-25zM1354 1731l-177 -201h36l177 201h-36zM1659 1226q49 -95 49 -183l2 -662v0l-1 -20q-6 -88 -62 -179q-63 -103 -159 -150
q109 24 183 117t80 215l1 7v669q0 121 -67 218t-174 129q92 -54 148 -161zM384 1029q0 62 35 103q2 3 69 59q-54 0 -97 -46q-44 -48 -45 -113v6v-629v0q1 -66 47 -115q45 -49 98 -49q-66 56 -71 62q-36 42 -36 105v617zM1463 413q0 -81 -58 -139q-57 -58 -139 -58h-750
q-82 0 -139 58q-58 58 -58 139l-3 608q0 82 58 139q58 58 139 58h6h744h6q81 0 139 -58q58 -57 58 -139zM1682 1021q0 171 -121 292q-121 120 -292 120l-4 1h-748l-4 -1q-171 0 -292 -120q-121 -121 -121 -292l3 -608q0 -171 120 -292q121 -121 292 -121h752q171 0 292 121
t121 292z" />
    <glyph glyph-name="odieresis" unicode="&#xf6;" horiz-adv-x="1900" 
d="M1300 1529h30v181h-30v-181zM1120 1529h167v181h-167v-181zM780 1529h30v181h-30v-181zM600 1529h167v181h-167v-181zM1659 1226q49 -95 49 -183l2 -662v0l-1 -20q-6 -88 -62 -179q-63 -103 -159 -150q109 24 183 117t80 215l1 7v669q0 121 -67 218t-174 129
q92 -54 148 -161zM384 1029q0 62 35 103q2 3 69 59q-54 0 -97 -46q-44 -48 -45 -113v6v-629v0q1 -66 47 -115q45 -49 98 -49q-66 56 -71 62q-36 42 -36 105v617zM1463 413q0 -81 -58 -139q-57 -58 -139 -58h-750q-82 0 -139 58q-58 58 -58 139l-3 608q0 82 58 139
q58 58 139 58h6h744h6q81 0 139 -58q58 -57 58 -139zM1682 1021q0 171 -121 292q-121 120 -292 120l-4 1h-748l-4 -1q-171 0 -292 -120q-121 -121 -121 -292l3 -608q0 -171 120 -292q121 -121 292 -121h752q171 0 292 121t121 292z" />
    <glyph glyph-name="ugrave" unicode="&#xf9;" 
d="M933 1753l222 -252l45 -1l-222 253h-45zM645 1752l229 -252h250l-227 252h-252zM444 414q0 -62 38 -104q17 -15 73 -60q-55 0 -101 47q-48 49 -49 114v777h39v-774zM1779 1187h38v-831q-7 -124 -79 -217q-72 -95 -181 -120q96 48 160 152q56 92 63 180l1 20zM532 1216
h-39v218h39v-218zM1445 1434h389v-218h-83l-2 -800q0 -172 -122 -294t-294 -122h-757q-173 0 -294 122q-122 122 -122 294l-2 800h-82v218h389v-218h-89l2 -799q0 -83 58 -141t140 -58h756q83 0 141 58t58 141l2 799h-88v218zM1863 1434h39v-218h-39v218z" />
    <glyph glyph-name="uacute" unicode="&#xfa;" 
d="M973 1753l-229 -251h251l227 251h-249zM1252 1752l-221 -252l45 1l222 252zM445 414q0 -62 38 -104q17 -15 73 -60q-55 0 -101 47q-48 49 -49 114v777h39v-774zM1780 1187h38v-831q-7 -124 -79 -217q-72 -95 -181 -120q96 48 160 152q56 92 63 180l1 20zM533 1216h-39
v218h39v-218zM1446 1434h389v-218h-83l-2 -800q0 -172 -122 -294t-294 -122h-757q-173 0 -294 122q-122 122 -122 294l-2 800h-82v218h389v-218h-89l2 -799q0 -83 58 -141t140 -58h756q83 0 141 58t58 141l2 799h-88v218zM1864 1434h39v-218h-39v218z" />
    <glyph glyph-name="ucircumflex" unicode="&#xfb;" 
d="M908 1582l-72 -82h48l49 61zM1027 1500h250l-227 252h-8l1 1h-249l-229 -251h251l104 115zM1086 1753l225 -253h42l-222 253h-45zM442 414q0 -62 38 -104q17 -15 73 -60q-55 0 -101 47q-48 49 -49 114v777h39v-774zM1777 1187h38v-831q-7 -124 -79 -217
q-72 -95 -181 -120q96 48 160 152q56 92 63 180l1 20zM530 1216h-39v218h39v-218zM1443 1434h389v-218h-83l-2 -800q0 -172 -122 -294t-294 -122h-757q-173 0 -294 122q-122 122 -122 294l-2 800h-82v218h389v-218h-89l2 -799q0 -83 58 -141t140 -58h756q83 0 141 58t58 141
l2 799h-88v218zM1861 1434h39v-218h-39v218z" />
    <glyph glyph-name="udieresis" unicode="&#xfc;" 
d="M1300 1529h30v181h-30v-181zM1120 1529h167v181h-167v-181zM780 1529h30v181h-30v-181zM600 1529h167v181h-167v-181zM440 414q0 -62 38 -104q17 -15 73 -60q-55 0 -101 47q-48 49 -49 114v777h39v-774zM1775 1187h38v-831q-7 -124 -79 -217q-72 -95 -181 -120
q96 48 160 152q56 92 63 180l1 20zM528 1216h-39v218h39v-218zM1441 1434h389v-218h-83l-2 -800q0 -172 -122 -294t-294 -122h-757q-173 0 -294 122q-122 122 -122 294l-2 800h-82v218h389v-218h-89l2 -799q0 -83 58 -141t140 -58h756q83 0 141 58t58 141l2 799h-88v218z
M1859 1434h39v-218h-39v218z" />
    <glyph glyph-name="yacute" unicode="&#xfd;" 
d="M973 1753l-229 -251h251l227 251h-249zM1252 1752l-221 -252l45 1l222 252zM1427 1434v-216h77v-162l-553 -369l-554 369v162h92v216h-389v-216h81v-277v0v0l667 -445v-280h-117v-216h452v216h-119v286l656 438v278h92v216h-385zM1840 1218h39v215h-39v-215zM517 1218h38
v215h-38v-215zM1747 1190v-264l-655 -437v0v0v-246h38v247l656 437v263h-39zM426 1190v-118l527 -351l18 13l-507 338v118h-38zM1211 0h39v216h-39v-216z" />
    <glyph glyph-name="ydieresis" unicode="&#xff;" 
d="M1427 1434v-216h77v-162l-553 -369l-554 369v162h92v216h-389v-216h81v-277v0v0l667 -445v-280h-117v-216h452v216h-119v286l656 438v278h92v216h-385zM1840 1218h39v215h-39v-215zM517 1218h38v215h-38v-215zM1747 1190v-264l-655 -437v0v0v-246h38v247l656 437v263h-39
zM426 1190v-118l527 -351l18 13l-507 338v118h-38zM1211 0h39v216h-39v-216zM1337 1534h32v196h-32v-196zM1148 1534h176v196h-176v-196zM789 1534h33v196h-33v-196zM600 1534h176v196h-176v-196z" />
    <glyph glyph-name="circumflex" unicode="&#x2c6;" horiz-adv-x="1024" 
d="M455 1229l-72 -82h48l49 61zM574 1147h250l-227 252h-8l1 1h-249l-229 -251h251l104 115zM633 1400l225 -253h42l-222 253h-45z" />
    <glyph glyph-name="tilde" unicode="&#x2dc;" horiz-adv-x="1024" 
d="M248 1344l-183 -200h200l112 123l81 -123h200l181 200h-198l-115 -125l-79 125h-199zM294 1143h36l58 66l-15 25zM525 1247l13 14l-49 79h-25zM864 1344l-177 -201h36l177 201h-36z" />
    <glyph glyph-name="quoteleft" unicode="&#x2018;" horiz-adv-x="557" 
d="M480 1434l-138 -146h-1v-177h47v177l139 147zM214 1433l-131 -134h-3v-3v0v0v-185h240v187l130 135h-236z" />
    <glyph glyph-name="quoteright" unicode="&#x2019;" horiz-adv-x="557" 
d="M76 1101l136 151h1v183h-47v-183l-137 -152zM328 1102l130 139h2v2l1 1h-1v191h-227v-193l-128 -140h223z" />
    <glyph glyph-name="quotedblleft" unicode="&#x201c;" horiz-adv-x="954" 
d="M437 1434l-138 -146h-1v-177h47v177l139 147zM171 1433l-131 -134h-3v-3v0v0v-185h240v187l130 135h-236zM853 1434l-138 -146h-1v-177h47v177l139 147zM587 1433l-131 -134h-3v-3v0v0v-185h240v187l130 135h-236z" />
    <glyph glyph-name="quotedblright" unicode="&#x201d;" horiz-adv-x="910" 
d="M76 1101l136 151h1v183h-47v-183l-137 -152zM328 1102l130 139h2v2l1 1h-1v191h-227v-193l-128 -140h223zM447 1101l136 151h1v183h-47v-183l-137 -152zM699 1102l130 139h2v2l1 1h-1v191h-227v-193l-128 -140h223z" />
    <glyph glyph-name="Euro" unicode="&#x20ac;" horiz-adv-x="1655" 
d="M317 413v-3q1 -65 47 -115q45 -49 99 -49q-66 56 -71 62q-37 43 -37 105h-38zM702 962h-28v-225h28v225zM664 441h28v224h-28v-224zM1477 440h-218v-25q0 -82 -58 -140t-140 -58h-573q-82 0 -140 58t-58 140v26h355v226h-356l-1 71h366v226h-366l-1 61q0 82 58 140
t140 58h579q82 0 140 -58t58 -140v-27h217v27q0 172 -121 293q-122 121 -293 121l-5 1h-571l-5 -1q-171 0 -293 -121q-121 -121 -121 -293v-61h-60v-226h61v-71h-70v-226h71v-26q0 -172 122 -294q121 -121 293 -121h575q172 0 293 121q122 122 122 294v25zM1456 1231
q49 -95 49 -184v-49h44v47q0 121 -67 218q-68 98 -175 130q93 -54 149 -162zM1508 382l-2 -19q-6 -89 -62 -180q-64 -103 -160 -151q110 25 184 118t81 215v75h-42zM317 984h38v49q0 63 35 103q3 4 69 60q-53 0 -96 -46q-45 -48 -46 -114v-52zM355 723h-38v-36h38v36z" />
  </font>
</defs>
</svg>
